<svg version="1.1" id="icon" xmlns="http://www.w3.org/2000/svg" xmlns:xlink="http://www.w3.org/1999/xlink" x="0px" y="0px" width="48px" height="48px" viewBox="0 0 48 48" style="enable-background:new 0 0 48 48;" xml:space="preserve"><style type="text/css">.st0{fill:#F05518;}</style><path id="delivery" class="st0" d="M47.3,13.3l-11.7,2.2L29.7,33c-0.6-0.3-1-0.4-1.7-0.6l5.8-17.6l0,0l0.4-1.2l12.5-2.1 c0.6-0.1,1.1,0,1.2,0.6C48.1,12.8,47.9,13.1,47.3,13.3z M24.9,32.5c-1.2,0.3-2.3,0.9-3.1,1.9l-0.4,0.4L0,27.6L8.1,3.3l10.8,3.6 l-2.1,6.5l2.2,0.7l2.2-6.5l11.3,3.8l-7,21L24.9,32.5z M22.2,9.8L20,16.3l-5.4-1.9L16.7,8L9.2,5.5l-7,21.1l18.8,6.3 c0.9-0.8,1.9-1.5,3.1-1.8l6.2-18.5L22.2,9.8z M13.9,25l-1,2.8l-5.4-8l9.1-3l-1,2.8l5.6,1.9L19.5,27L13.9,25z M13.5,20.8l0.4-1.2 l-3.7,1.2l2.2,3.2l0.4-1.2l5.6,1.9l0.7-2.1L13.5,20.8z M2.1,31.3L20,37.1c-0.3,0.7-0.4,0.9-0.4,1.7c-0.1,0-0.1,0-0.2,0l-18-5.9 c-0.6-0.2-0.8-0.6-0.6-1.2C1,31.1,1.5,31.1,2.1,31.3z M26.7,34.2c2.9,0,5.3,2.3,5.3,5.3s-2.4,5.3-5.3,5.3s-5.3-2.4-5.3-5.3 S23.8,34.2,26.7,34.2z M26.7,43.2c2.1,0,3.7-1.7,3.7-3.7s-1.7-3.7-3.7-3.7S23,37.4,23,39.4S24.7,43.2,26.7,43.2z M26.7,38.3 c0.7,0,1.2,0.5,1.2,1.2c0,0.7-0.5,1.2-1.2,1.2c-0.7,0-1.2-0.5-1.2-1.2C25.6,38.8,26.1,38.3,26.7,38.3z"/></svg>