<svg version="1.1" id="icon" xmlns="http://www.w3.org/2000/svg" xmlns:xlink="http://www.w3.org/1999/xlink" x="0px" y="0px" width="48px" height="48px" viewBox="0 0 48 48" style="enable-background:new 0 0 48 48;" xml:space="preserve"><style type="text/css">.st0{fill:#F05518;}</style><path id="discount" class="st0" d="M47.4,16.2c-0.5-0.2-1.1,0-1.3,0.5c0,0-1.3,2.6-4,3.4C39.9,12.7,31.4,7.2,21.3,7.2 c-0.7,0-1.4,0-2,0.1c-2.9-3.2-7.1-3.7-9.4-3.7c-1.3,0-2.1,0.1-2.2,0.2C7.3,3.8,7,4.1,6.9,4.4c-0.1,0.4,0,0.7,0.2,1 c1.4,1.4,2.9,4.4,2.8,7.5c-0.1,3.1-2.5,5.5-5.5,5.5c-0.7,0-1.4-0.1-2.1-0.4c-0.5-0.2-1.1,0-1.3,0.5C0.4,20.2,0,22,0,23.8 c0,1.2,0.2,2.4,0.5,3.6c0.1,0.4,0.4,0.7,0.8,0.7c4.1,0.6,7,4,7,8.1c0,0.1,0,0.1,0,0.2c0,0.1,0,0.1,0,0.2v6.9c0,0.6,0.4,1,1,1h4.8 c0.6,0,1-0.4,1-1v-3.8c4.3,1,8.7,1,12.8-0.1v3.8c0,0.6,0.4,1,1,1h4.8c0.6,0,1-0.4,1-1v-6.7c5-3.2,7.9-7.8,7.9-12.9 c0-0.6,0-1.2-0.1-1.8c3.7-1,5.3-4.4,5.4-4.5C48.1,17,47.9,16.4,47.4,16.2z M33.2,35.2c-0.3,0.2-0.5,0.5-0.5,0.9v6.3h-2.8v-4.2 c0-0.3-0.2-0.6-0.4-0.8c-0.3-0.2-0.6-0.2-0.9-0.2c-4.5,1.4-9.4,1.5-14.2,0.1c-0.3-0.1-0.6,0-0.9,0.2c-0.3,0.2-0.4,0.5-0.4,0.8v4.1 h-2.8v-6c0,0,0-0.1,0-0.1c0,0,0-0.1,0-0.1c0-4.8-3.4-8.9-8.1-9.9C2.1,25.4,2,24.6,2,23.8c0-1.2,0.2-2.4,0.6-3.6 c0.6,0.2,1.2,0.2,1.8,0.2c4.1,0,7.4-3.3,7.5-7.4c0.1-2.8-0.9-5.5-2.1-7.4c2.1,0,5.9,0.4,8.3,3.4c0.2,0.3,0.5,0.4,0.9,0.4 c0.7-0.1,1.5-0.1,2.4-0.1c10.7,0,19.3,6.5,19.3,14.6C40.6,28.3,37.9,32.4,33.2,35.2z M19,17.1c0,1.2-0.9,2.1-2.1,2.1 c-1.2,0-2.1-1-2.1-2.1s1-2.1,2.1-2.1C18.1,14.9,19,15.9,19,17.1z"/></svg>