<svg version="1.1" id="icon" xmlns="http://www.w3.org/2000/svg" xmlns:xlink="http://www.w3.org/1999/xlink" x="0px" y="0px" width="48px" height="48px" viewBox="0 0 48 48" style="enable-background:new 0 0 48 48;" xml:space="preserve"><style type="text/css">.st0{fill:#F05518;}</style><path id="earn" class="st0" d="M47.6,5.3c0-3.6-8.5-5.3-16.4-5.3S14.8,1.7,14.8,5.3c0,0.3,0.1,0.6,0.2,0.8c-0.1,0.2-0.2,0.3-0.2,0.5 v9C6.7,16.6,0.4,23.5,0.4,31.8C0.4,40.7,7.7,48,16.6,48c7.9,0,14.4-5.6,15.9-13.1c7.6-0.2,15.1-1.9,15.1-5.3c0,0,0,0,0-0.1 c0,0,0,0,0-0.1V6.7c0-0.2-0.1-0.4-0.2-0.5C47.5,5.9,47.6,5.6,47.6,5.3z M45.6,21.3C45.6,21.3,45.6,21.3,45.6,21.3 c0,1.1-4.8,3.2-13.7,3.3c-0.3,0-0.5,0.1-0.7,0.3c-1.4-2.9-3.6-5.4-6.4-7c0.9,0.1,1.6,0.2,1.6,0.2c1.5,0.1,3.1,0.2,4.8,0.2 c5.6,0,11.4-0.8,14.4-2.6V21.3z M45.6,12.9c0,1.1-5.1,3.3-14.4,3.3c-1.6,0-3.1-0.1-4.6-0.2c-0.7-0.1-8.5-1.1-9.3-1.2 c-0.2-0.1-0.4-0.1-0.6,0V8c3,1.8,8.8,2.6,14.4,2.6c5.6,0,11.4-0.8,14.4-2.6V12.9z M31.2,2c9.3,0,14.4,2.2,14.4,3.3 c0,1.1-5.1,3.3-14.4,3.3c-8.9,0-14.4-2.1-14.4-3.3C16.8,4.1,22.2,2,31.2,2z M16.6,46C8.8,46,2.4,39.6,2.4,31.8s6.4-14.2,14.2-14.2 c7.8,0,14.2,6.4,14.2,14.2S24.4,46,16.6,46z M32.8,32.9c0-0.4,0.1-0.7,0.1-1.1c0-1.8-0.3-3.6-0.9-5.2c5.3-0.1,10.8-0.9,13.7-2.6v5.5 c0,0,0,0,0,0.1c0,0,0,0,0,0.1C45.6,30.7,41.1,32.7,32.8,32.9z M21.1,35.1c0,1.9-1.3,3.7-3.8,4.1v2.5h-1.5v-2.4 c-1.4,0-2.8-0.5-3.7-1.1l0.6-1.6c0.9,0.6,2.1,1,3.4,1c1.7,0,2.9-1,2.9-2.3c0-1.3-0.9-2.1-2.7-2.8c-2.4-1-4-2.1-4-4.1 c0-2,1.4-3.5,3.6-3.9V22h1.5v2.3c1.4,0,2.4,0.4,3.1,0.8L20,26.7c-0.5-0.3-1.5-0.8-3-0.8c-1.8,0-2.5,1.1-2.5,2.1c0,1.2,0.9,1.9,3,2.7 C19.8,31.7,21.1,32.9,21.1,35.1z"/></svg>