<svg version="1.1" id="icon" xmlns="http://www.w3.org/2000/svg" xmlns:xlink="http://www.w3.org/1999/xlink" x="0px" y="0px" width="48px" height="48px" viewBox="0 0 48 48" style="enable-background:new 0 0 48 48;" xml:space="preserve"><style type="text/css">.st0{fill:#F05518;}</style><path id="payment" class="st0" d="M48,12.2H17.9v2H46v22.2H29.5v0.1c-0.2-0.2-0.5-0.3-0.7-0.4c-1.1-0.7-2.3-1.2-3.4-1.6 c0.4,0.1,0.7,0.1,1.1,0.1c4.3,0,7.9-4.2,7.9-9.3c0-5.1-3.5-9.3-7.9-9.3c-4.3,0-7.9,4.2-7.9,9.3c0,4.1,2.2,7.5,5.3,8.8 c-0.7-0.2-1.3-0.2-1.9-0.2c-1.9,0-2.8,0.8-3.1,1.4c-0.7,1.1-0.4,2.7,0.8,4.4c1,1.4,2.7,2.9,4.6,4c2.4,1.4,4.9,2.3,6.8,2.3 c1.9,0,2.8-0.8,3.1-1.4c1.1-1.7-0.2-4.1-2.4-6.1H48V12.2z M20.6,25.3c0-4,2.6-7.3,5.9-7.3c3.2,0,5.9,3.3,5.9,7.3 c0,4-2.6,7.3-5.9,7.3C23.3,32.6,20.6,29.3,20.6,25.3z M32.4,43.4c-0.2,0.3-0.7,0.5-1.4,0.5c-1.6,0-3.7-0.7-5.8-2 c-1.7-1-3.1-2.3-4-3.5c-0.7-0.9-0.9-1.8-0.7-2.2c0.2-0.3,0.7-0.5,1.4-0.5c1.6,0,3.7,0.7,5.8,2C31.3,39.9,32.9,42.6,32.4,43.4z M8.9,2.1C4.6,2.1,0,3.6,0,6.5c0,2.9,4.6,4.4,8.9,4.4c4.3,0,8.9-1.6,8.9-4.4C17.9,3.6,13.3,2.1,8.9,2.1z M8.9,8.9 C4.8,8.9,2,7.5,2,6.5c0-1,2.8-2.4,6.9-2.4s6.9,1.5,6.9,2.4S13.1,8.9,8.9,8.9z M15.9,10.9h2c0,2.9-4.6,4.4-8.9,4.4 c-4.3,0-8.9-1.6-8.9-4.4h2c0,1,2.8,2.4,6.9,2.4S15.9,11.9,15.9,10.9z M15.9,15h2c0,2.9-4.6,4.4-8.9,4.4C4.6,19.4,0,17.9,0,15h2 c0,1,2.8,2.4,6.9,2.4S15.9,15.9,15.9,15z M15.9,19.1h2c0,2.9-4.6,4.4-8.9,4.4c-4.3,0-8.9-1.6-8.9-4.4h2c0,1,2.8,2.4,6.9,2.4 S15.9,20,15.9,19.1z M15.9,23.1h2c0,2.9-4.6,4.4-8.9,4.4C4.6,27.6,0,26,0,23.1h2c0,1,2.8,2.4,6.9,2.4S15.9,24.1,15.9,23.1z M15.9,27.2h2c0,2.9-4.6,4.4-8.9,4.4c-4.3,0-8.9-1.6-8.9-4.4h2c0,1,2.8,2.4,6.9,2.4S15.9,28.2,15.9,27.2z M15.9,31.3h2 c0,2.9-4.6,4.4-8.9,4.4c-4.3,0-8.9-1.6-8.9-4.4h2c0,1,2.8,2.4,6.9,2.4S15.9,32.3,15.9,31.3z M15.9,35.4h2c0,2.9-4.6,4.4-8.9,4.4 c-4.3,0-8.9-1.6-8.9-4.4h2c0,1,2.8,2.4,6.9,2.4S15.9,36.4,15.9,35.4z M40.8,21.2c1.7,0,3.1-1.4,3.1-3.1c0-1.7-1.4-3.1-3.1-3.1 c-1.7,0-3.1,1.4-3.1,3.1C37.8,19.8,39.2,21.2,40.8,21.2z M40.8,17.1c0.6,0,1.1,0.5,1.1,1.1c0,0.6-0.5,1.1-1.1,1.1 c-0.6,0-1.1-0.5-1.1-1.1C39.8,17.5,40.3,17.1,40.8,17.1z M40.8,35.8c1.7,0,3.1-1.4,3.1-3.1c0-1.7-1.4-3.1-3.1-3.1 c-1.7,0-3.1,1.4-3.1,3.1C37.8,34.4,39.2,35.8,40.8,35.8z M40.8,31.7c0.6,0,1.1,0.5,1.1,1.1c0,0.6-0.5,1.1-1.1,1.1 c-0.6,0-1.1-0.5-1.1-1.1C39.8,32.1,40.3,31.7,40.8,31.7z M26.1,29.1L26.1,29.1L26.1,29.1L26.1,29.1L26.1,29.1z M27,28.5 c0.6-0.1,1.1-0.3,1.4-0.6c0.4-0.4,0.5-0.8,0.5-1.3c0-0.5-0.2-0.9-0.5-1.2c-0.3-0.3-0.8-0.5-1.5-0.7v-1.3c0.3,0.1,0.7,0.3,1.1,0.6 l0.8-1.1c-0.6-0.4-1.2-0.7-1.9-0.8v-0.5h-1v0.5c-0.6,0.1-1,0.3-1.4,0.6c-0.4,0.3-0.5,0.8-0.5,1.3c0,0.5,0.2,0.9,0.5,1.2 c0.3,0.3,0.8,0.5,1.4,0.7v1.4c-0.4-0.1-0.8-0.4-1.3-0.8l-0.9,1.1c0.7,0.6,1.4,0.9,2.2,1.1v0.7h1V28.5z M27,26 c0.2,0.1,0.3,0.2,0.4,0.2c0.1,0.1,0.1,0.2,0.1,0.3c0,0.3-0.2,0.5-0.5,0.6V26z M26.1,24.3c-0.3-0.1-0.4-0.3-0.4-0.6 c0-0.2,0.1-0.4,0.4-0.5V24.3z"/></svg>