<svg version="1.1" id="icon" xmlns="http://www.w3.org/2000/svg" xmlns:xlink="http://www.w3.org/1999/xlink" x="0px" y="0px" width="48px" height="48px" viewBox="0 0 48 48" style="enable-background:new 0 0 48 48;" xml:space="preserve"><style type="text/css">.st0{fill:#F05518;}</style><path id="quality" class="st0" d="M41.4,42.7l-8.9-14.9c0.4-0.1,1-0.2,1.5-0.2c1.4-0.1,2.8-0.3,3.5-1.2c0.7-1,0.4-2.3,0.1-3.7 c-0.1-0.7-0.3-1.6-0.2-1.9c0.1-0.3,0.8-0.9,1.3-1.4c1-0.9,2.1-1.9,2.1-3c0-1.2-1.1-2.1-2.1-3c-0.5-0.5-1.2-1.1-1.3-1.4 c-0.1-0.3,0.1-1.2,0.2-1.9c0.3-1.3,0.6-2.7-0.1-3.7c-0.7-1-2.1-1.1-3.5-1.2c-0.7-0.1-1.6-0.2-1.9-0.4c-0.3-0.2-0.7-1.1-0.9-1.7 c-0.6-1.3-1.1-2.6-2.3-2.9c-1-0.3-2.3,0.3-3.5,1c-0.6,0.3-1.4,0.8-1.7,0.8c-0.3,0-1.1-0.5-1.7-0.8c-1-0.6-2-1.1-2.9-1.1 c-0.2,0-0.4,0-0.6,0.1C17.2,0.5,16.6,1.8,16,3c-0.3,0.6-0.7,1.5-0.9,1.7c-0.3,0.2-1.2,0.3-1.9,0.4c-1.4,0.1-2.8,0.3-3.5,1.2 c-0.7,1-0.4,2.3-0.1,3.7c0.1,0.7,0.3,1.6,0.2,1.9c-0.1,0.3-0.8,0.9-1.3,1.4c-1,0.9-2.1,1.9-2.1,3c0,1.2,1.1,2.1,2.1,3.1 c0.5,0.5,1.2,1.1,1.3,1.4c0.1,0.3-0.1,1.2-0.2,1.9c-0.3,1.3-0.6,2.7,0.1,3.7c0.7,1,2.1,1.1,3.5,1.2c0.7,0.1,1.6,0.2,1.9,0.4 c0.2,0.1,0.5,0.7,0.7,1.2L9.5,44c-0.2,0.4-0.1,0.8,0.2,1.1c0.3,0.3,0.7,0.4,1,0.3l5.8-1.8l3.9,4.2c0.2,0.2,0.5,0.3,0.7,0.3 c0.1,0,0.2,0,0.3-0.1c0.4-0.1,0.6-0.5,0.7-0.8l1.7-16.3c0.4,0.1,1.1,0.5,1.6,0.8c0.4,0.2,0.8,0.4,1.2,0.6l2.6,14.7 c0.1,0.4,0.4,0.7,0.7,0.8c0.1,0,0.2,0,0.3,0c0.3,0,0.6-0.1,0.8-0.4l3.9-4.6l5.5,1.4c0.4,0.1,0.8,0,1.1-0.4 C41.6,43.5,41.6,43.1,41.4,42.7z M20.3,44.7l-2.8-3c-0.3-0.3-0.7-0.4-1-0.3l-4.3,1.3L17,31.5c0.4,0.5,0.8,0.9,1.3,1.1 c0.2,0.1,0.4,0.1,0.6,0.1c0.9,0,1.8-0.5,2.7-1L20.3,44.7z M23.6,28.8c-0.9,0-1.8,0.5-2.7,1.1c-0.6,0.4-1.5,0.9-1.9,0.9l0,0 c-0.3-0.1-0.8-1.2-1.1-1.8c-0.5-1-0.9-2-1.6-2.5c-0.7-0.5-1.7-0.6-2.8-0.7c-0.6-0.1-1.9-0.2-2.1-0.4c-0.2-0.3,0.1-1.5,0.2-2.1 c0.2-1.1,0.4-2.1,0.2-2.9c-0.3-0.8-1-1.5-1.9-2.3c-0.5-0.4-1.4-1.2-1.4-1.6c0-0.3,0.9-1.1,1.4-1.6c0.8-0.7,1.6-1.4,1.9-2.3 c0.3-0.8,0.1-1.9-0.2-2.9c-0.1-0.6-0.4-1.8-0.2-2.1c0.2-0.2,1.4-0.4,2.1-0.4c1.1-0.1,2.1-0.2,2.9-0.7c0.7-0.5,1.1-1.5,1.6-2.5 C18.1,3.2,18.6,2.1,19,2c0.4,0,1.3,0.5,1.9,0.9c1,0.6,1.9,1.1,2.7,1.1c0.9,0,1.8-0.5,2.7-1.1C27,2.5,27.8,2,28.3,2 c0.3,0.1,0.8,1.2,1.1,1.8c0.5,1,0.9,2,1.6,2.5c0.7,0.5,1.7,0.6,2.8,0.7c0.6,0.1,1.9,0.2,2.1,0.4C36,7.8,35.7,9,35.6,9.6 c-0.2,1.1-0.4,2.1-0.2,2.9c0.3,0.8,1,1.5,1.9,2.3c0.5,0.4,1.4,1.2,1.4,1.6c0,0.3-0.9,1.1-1.4,1.6c-0.8,0.7-1.6,1.4-1.9,2.3 c-0.3,0.8,0,1.9,0.2,2.9c0.1,0.6,0.4,1.8,0.2,2.1c-0.2,0.2-1.4,0.4-2.1,0.4c-1.1,0.1-2.1,0.2-2.8,0.7c-0.7,0.5-1.1,1.5-1.6,2.5 c-0.3,0.6-0.8,1.7-1.1,1.8c-0.4,0-1.3-0.5-1.9-0.9C25.4,29.3,24.5,28.8,23.6,28.8z M34.6,40.7c-0.4-0.1-0.8,0-1,0.3l-2.9,3.5 l-2.1-11.8c0.1,0,0.2,0,0.2,0c1.1-0.4,1.7-1.7,2.3-2.9c0,0,0-0.1,0.1-0.1l7.2,12.1L34.6,40.7z"/></svg>