<?xml version="1.0" encoding="utf-8"?>
<!-- Generator: Adobe Illustrator 19.2.0, SVG Export Plug-In . SVG Version: 6.00 Build 0)  -->
<svg version="1.1" id="icon" xmlns="http://www.w3.org/2000/svg" xmlns:xlink="http://www.w3.org/1999/xlink" x="0px" y="0px"
	 width="46px" height="46px" viewBox="0 0 46 46" style="enable-background:new 0 0 46 46;" xml:space="preserve">
<style type="text/css">
	.st0{display:none;fill:#F05518;}
	.st1{fill:#F05518;}
	.st2{display:none;fill:none;stroke:#000000;}
</style>
<path id="search" class="st0" d="M36.8,38.9c-0.6,0-1.1-0.2-1.5-0.6l-5.7-5.7c-1.9,1.3-4.3,2.1-6.6,2.1c-6.4,0-11.7-5.2-11.7-11.7
	S16.6,11.3,23,11.3c6.4,0,11.7,5.2,11.7,11.7c0,2.4-0.7,4.7-2.1,6.6l5.7,5.7c0.4,0.4,0.6,0.9,0.6,1.5C38.9,37.9,37.9,38.9,36.8,38.9
	z M23,15.6c-4.1,0-7.4,3.3-7.4,7.4s3.3,7.4,7.4,7.4c4.1,0,7.4-3.3,7.4-7.4S27.1,15.6,23,15.6z"/>
<g>
	<path class="st1" d="M33.5,33.5c-0.3,0.3-0.6,0.4-1,0.4c-0.3,0-0.5-0.1-0.8-0.2c-0.2-0.1-0.5-0.4-0.6-0.6c-0.4-0.4-0.8-0.8-1.2-1.2
		c-0.8-0.8-1.6-1.6-2.4-2.4c-0.7,0.5-1.4,0.8-2.2,1.1c-0.4,0.1-0.8,0.2-1.2,0.3c-0.8,0.1-1.5,0.1-2.3,0c-1-0.1-1.9-0.4-2.8-1
		c-0.9-0.5-1.6-1.1-2.2-1.9c-1.3-1.6-1.9-3.5-1.9-5.5c0-1,0.2-2,0.7-2.9c0.4-0.9,1-1.7,1.7-2.4c1.4-1.4,3.3-2.2,5.3-2.3
		c1-0.1,2,0.1,3,0.4c0.9,0.3,1.8,0.9,2.5,1.4c1.5,1.3,2.6,3.1,2.8,5.1c0.2,1.2,0.1,2.3-0.3,3.5c-0.3,0.8-0.6,1.5-1.1,2.2
		c0.8,0.8,1.6,1.6,2.4,2.4c0.4,0.4,0.8,0.8,1.2,1.2c0.1,0.1,0.5,0.4,0.6,0.6c0.2,0.2,0.2,0.5,0.2,0.8C33.9,32.9,33.8,33.2,33.5,33.5
		z M27.4,20.4c-0.5-0.8-1.1-1.4-1.8-1.8c-0.8-0.5-1.6-0.7-2.6-0.7c-1,0-1.8,0.2-2.6,0.7c-0.8,0.5-1.4,1.1-1.8,1.8
		c-0.5,0.8-0.7,1.6-0.7,2.6c0,1,0.2,1.8,0.7,2.6c0.5,0.8,1.1,1.4,1.8,1.8c0.8,0.5,1.6,0.7,2.6,0.7c1,0,1.8-0.2,2.6-0.7
		c0.8-0.5,1.4-1.1,1.8-1.8c0.5-0.8,0.7-1.6,0.7-2.6C28.1,22,27.9,21.2,27.4,20.4z"/>
	<line class="st2" x1="23" y1="21" x2="23" y2="25"/>
	<line class="st2" x1="21" y1="23" x2="25" y2="23"/>
</g>
<rect class="st0" width="46" height="46"/>
</svg>
