<svg version="1.1" id="icon" xmlns="http://www.w3.org/2000/svg" xmlns:xlink="http://www.w3.org/1999/xlink" x="0px" y="0px" width="46px" height="46px" viewBox="0 0 46 46" style="enable-background:new 0 0 46 46;" xml:space="preserve"><style type="text/css">.st1{fill:#7fb800;}</style><g><path class="st1" d="M33.5,33.5c-0.3,0.3-0.6,0.4-1,0.4c-0.3,0-0.5-0.1-0.8-0.2c-0.2-0.1-0.5-0.4-0.6-0.6c-0.4-0.4-0.8-0.8-1.2-1.2 c-0.8-0.8-1.6-1.6-2.4-2.4c-0.7,0.5-1.4,0.8-2.2,1.1c-0.4,0.1-0.8,0.2-1.2,0.3c-0.8,0.1-1.5,0.1-2.3,0c-1-0.1-1.9-0.4-2.8-1 c-0.9-0.5-1.6-1.1-2.2-1.9c-1.3-1.6-1.9-3.5-1.9-5.5c0-1,0.2-2,0.7-2.9c0.4-0.9,1-1.7,1.7-2.4c1.4-1.4,3.3-2.2,5.3-2.3 c1-0.1,2,0.1,3,0.4c0.9,0.3,1.8,0.9,2.5,1.4c1.5,1.3,2.6,3.1,2.8,5.1c0.2,1.2,0.1,2.3-0.3,3.5c-0.3,0.8-0.6,1.5-1.1,2.2 c0.8,0.8,1.6,1.6,2.4,2.4c0.4,0.4,0.8,0.8,1.2,1.2c0.1,0.1,0.5,0.4,0.6,0.6c0.2,0.2,0.2,0.5,0.2,0.8C33.9,32.9,33.8,33.2,33.5,33.5 z M27.4,20.4c-0.5-0.8-1.1-1.4-1.8-1.8c-0.8-0.5-1.6-0.7-2.6-0.7c-1,0-1.8,0.2-2.6,0.7c-0.8,0.5-1.4,1.1-1.8,1.8 c-0.5,0.8-0.7,1.6-0.7,2.6c0,1,0.2,1.8,0.7,2.6c0.5,0.8,1.1,1.4,1.8,1.8c0.8,0.5,1.6,0.7,2.6,0.7c1,0,1.8-0.2,2.6-0.7 c0.8-0.5,1.4-1.1,1.8-1.8c0.5-0.8,0.7-1.6,0.7-2.6C28.1,22,27.9,21.2,27.4,20.4z"/></g></svg>
