<?xml version="1.0" encoding="utf-8"?>
<!-- Generator: Adobe Illustrator 19.2.0, SVG Export Plug-In . SVG Version: 6.00 Build 0)  -->
<svg version="1.1" id="icon" xmlns="http://www.w3.org/2000/svg" xmlns:xlink="http://www.w3.org/1999/xlink" x="0px" y="0px"
	 width="38px" height="38px" viewBox="0 0 38 38" style="enable-background:new 0 0 38 38;" xml:space="preserve">
<style type="text/css">
	.st0{fill:#FFFFFF;}
</style>
<path class="st0" d="M26.8396873,23.1078854c0.3290787,0,0.5758858-0.2489624,0.6581554-0.4979267l2.4680805-7.6348543
	c0.0822678-0.2489614,0-0.4979248-0.0822678-0.6638994c-0.1645393-0.1659756-0.3290787-0.3319511-0.5758858-0.3319511H13.5943174
	l-0.9872322-4.2323656C12.5248156,9.414938,12.2780075,9,11.8666611,9H8.7404242C8.3290768,9,8,9.414938,8,9.8298759
	c0,0.414937,0.3290768,0.829875,0.7404242,0.829875h2.5503511l3.4553127,14.688798
	c-0.3290768,0.414938-0.5758858,0.9128647-0.5758858,1.4937763C14.1702023,28.0041523,15.1574354,29,16.309206,29
	s2.1390038-0.9128628,2.1390038-2.1576748c0-0.1659756,0-0.414938-0.0822697-0.414938h5.5943184
	c0,0-0.0822697,0.2489624-0.0822697,0.414938C23.8779888,28.0041523,24.8652229,29,26.0169945,29
	s2.1390018-0.9958515,2.1390018-2.1576748c0-1.1618252-0.9872322-2.1576767-2.1390038-2.1576767
	c-0.1645393,0-0.4113464,0.0829868-0.5758858,0.0829868l0,0h-8.556015c-0.1645393,0-0.3290768-0.0829868-0.5758858-0.0829868
	c-0.0822697,0-0.1645393,0-0.2468071,0l-0.3290777-1.5767632H26.8396873z M17.0496311,26.8423252
	c0,0.414938-0.3290768,0.7468891-0.7404232,0.7468891c-0.4113474,0-0.7404242-0.3319511-0.7404242-0.7468891
	c0-0.1659756,0.0822697-0.3319511,0.1645393-0.4979267h1.0695009
	C16.9673615,26.5103741,17.0496311,26.6763496,17.0496311,26.8423252z M26.8396873,26.8423252
	c0,0.414938-0.3290787,0.7468891-0.7404232,0.7468891c-0.4113483,0-0.7404251-0.3319511-0.7404251-0.7468891
	c0-0.1659756,0.0822697-0.3319511,0.1645393-0.4979267c0.1645393,0,0.3290768-0.0829868,0.4936161-0.2489605l0,0
	C26.5106087,26.095438,26.8396873,26.4273872,26.8396873,26.8423252z"/>
</svg>
