<?xml version="1.0" encoding="utf-8"?>
<!-- Generator: Adobe Illustrator 19.2.0, SVG Export Plug-In . SVG Version: 6.00 Build 0)  -->
<svg version="1.1" id="icon" xmlns="http://www.w3.org/2000/svg" xmlns:xlink="http://www.w3.org/1999/xlink" x="0px" y="0px"
	 width="46px" height="46px" viewBox="0 0 46 46" style="enable-background:new 0 0 46 46;" xml:space="preserve">
<style type="text/css">
	.st0{fill:#F05518;}
</style>
<path class="st0" d="M32.5,28c0.4,0,0.7-0.3,0.8-0.6l3-9.2c0.1-0.3,0-0.6-0.1-0.8C36,17.2,35.8,17,35.5,17H16.4l-1.2-5.1
	c-0.1-0.4-0.4-0.9-0.9-0.9h-3.8c-0.5,0-0.9,0.5-0.9,1c0,0.5,0.4,1,0.9,1h3.1l4.2,17.7c-0.4,0.5-0.7,1.1-0.7,1.8
	c0,1.4,1.2,2.6,2.6,2.6c1.4,0,2.6-1.1,2.6-2.6c0-0.2,0-0.5-0.1-0.5h6.8c0,0-0.1,0.3-0.1,0.5c0,1.4,1.2,2.6,2.6,2.6
	c1.4,0,2.6-1.2,2.6-2.6c0-1.4-1.2-2.6-2.6-2.6c-0.2,0-0.5,0.1-0.7,0.1c0,0,0,0,0,0H20.4c-0.2,0-0.4-0.1-0.7-0.1c-0.1,0-0.2,0-0.3,0
	L19,28H32.5z M20.6,32.5c0,0.5-0.4,0.9-0.9,0.9c-0.5,0-0.9-0.4-0.9-0.9c0-0.2,0.1-0.4,0.2-0.6h1.3C20.5,32.1,20.6,32.3,20.6,32.5z
	 M32.5,32.5c0,0.5-0.4,0.9-0.9,0.9c-0.5,0-0.9-0.4-0.9-0.9c0-0.2,0.1-0.4,0.2-0.6c0.2,0,0.4-0.1,0.6-0.3c0,0,0,0,0,0
	C32.1,31.6,32.5,32,32.5,32.5z"/>
</svg>
