<svg version="1.1" id="realtime" xmlns="http://www.w3.org/2000/svg" xmlns:xlink="http://www.w3.org/1999/xlink" x="0" y="0" viewBox="0 0 60 12" style="enable-background:new 0 0 60 12;" xml:space="preserve"><style type="text/css">.rtm{fill:#F05518;}</style><path id="logo" class="rtm" d="M3.6875126,4.9081101c1.0232089,0,2.046416,0,3.0696251,0v1.6360359 c-0.8108687,0-1.621737,0-2.4326057,0c-0.2053308,0-0.410661,0-0.615994,0c-0.200428,0-0.3978748-0.0000129-0.596606,0.0435834 C2.7123342,6.6753931,2.352005,6.891057,2.084193,7.2028451C1.8162271,7.5148149,1.6560462,7.9049492,1.6268601,8.3167095 C1.619186,8.4249697,1.62204,9.4365587,1.62204,9.5446043c0,0.817667,0,1.6353312,0,2.4529982H0.0004307 c0-1.0320711,0-2.0641441,0-3.0962152c0-0.5954838-0.017324-0.9484081,0.167778-1.5308361 c0.156856-0.4935493,0.418941-0.9461827,0.76803-1.3264351c0.3488051-0.37994,0.7757842-0.6780939,1.251096-0.8736281 C2.4324007,5.069674,2.6808698,4.9988542,2.9419975,4.95539C3.1901538,4.9140806,3.4375367,4.9081101,3.6875126,4.9081101z M11.4310331,4.9081101c-0.4054203,0-0.8076944-0.0191741-1.2131147,0.0508928 c-1.686965,0.2915621-2.9202433,1.7670875-2.9202433,3.4938531c0,1.7265949,1.2330437,3.2020254,2.9198036,3.4937735 c0.4052486,0.0700941,0.8073511,0.050971,1.2126055,0.050971c0.414711,0,0.8294191,0,1.2441301,0 c0.8204155,0,1.6408291,0,2.4612408,0v-1.6360378c-1.0765352,0-2.1530666,0-3.2296019,0c-0.2687483,0-0.5374947,0-0.806241,0 c-0.306942,0-0.4985065,0.0146427-0.8017359-0.0715923c-0.5258265-0.149538-0.9619055-0.5211048-1.1960421-1.0190983h5.493084 v-1.636035h-5.493083C9.336031,7.1367202,9.7722654,6.7651,10.2982512,6.6156325 c0.3029795-0.0860968,0.494338-0.0714865,0.8010273-0.0714865c0.2691231,0,0.5382442,0,0.8073692,0 c1.0762682,0,2.1525393,0,3.2288094,0V4.9081101c-0.8199329,0-1.639864,0-2.459795,0 C12.2607822,4.9081101,11.8459082,4.9081101,11.4310331,4.9081101z M24.2909794,7.9637704 c0.0294056,0.2129836,0.0335999,0.4254737,0.0335999,0.6395564v0.6675463v2.7267284c-1.4070282,0-2.8140583,0-4.2210903,0 c-0.3542347,0-0.7084675,0-1.0627003,0c-0.1771183,0-0.3542328,0-0.5313511,0c-0.1716003,0-0.3412075-0.0033569-0.5114613-0.0340834 c-0.7067451-0.1275387-1.304287-0.6003065-1.5955448-1.2623777c-0.6206722-1.4108829,0.3676796-3.007988,1.8966331-3.0648236 c0.1744175-0.0064845,0.3486614-0.0014796,0.5229969-0.0014796c0.1763096,0,0.3526211,0,0.5289307,0 c0.3526211,0,0.7052441,0,1.0578632,0c0.7038555,0,1.407711,0,2.1115646,0 c-0.2240963-0.4766326-0.6337204-0.8384418-1.1316299-0.9995289c-0.2888832-0.0934601-0.4670811-0.0911622-0.7637787-0.0911622 c-0.2578659,0-0.515728,0-0.773592,0c-1.0314503,0-2.0629025,0-3.0943527,0V4.9081101c0.8650436,0,1.7300873,0,2.5951309,0 c0.4326878,0,0.8653774,0,1.2980633,0c0.4770184,0,0.8211842,0.0292358,1.2790623,0.1843238 c0.8299618,0.2811213,1.5259991,0.864727,1.9517746,1.6365156C24.0973988,7.1210313,24.2296085,7.5193415,24.2909794,7.9637704z M22.7029705,9.2708731c-0.8624611,0-1.7249203,0-2.5873814,0c-0.4310646,0-0.8621311,0-1.2931919,0 c-0.1059265,0-0.2118568,0-0.3177872,0c-0.1051483,0-0.206892-0.0051718-0.3103867,0.0327349 c-0.2139759,0.078372-0.3560829,0.2829456-0.3560829,0.5126104c0,0.2299109,0.1424103,0.4346533,0.3567123,0.5128431 c0.1036263,0.0378056,0.205492,0.0325031,0.3107319,0.0325031c0.1060371,0,0.2120743,0,0.3181076,0 c0.4308109,0,0.8616199,0,1.2924309,0c0.8622856,0,1.7245655,0,2.5868473,0V9.2708731z M55.1624222,6.6157389 c0.3032265-0.086236,0.4947929-0.0715928,0.8017311-0.0715928c0.2687492,0,0.5374947,0,0.8062439,0 c1.0765343,0,2.1530647,0,3.2296028,0V4.9081101c-0.8204117,0-1.6408272,0-2.4612427,0c-0.414711,0-0.8294182,0-1.244133,0 c-0.4052505,0-0.8073578-0.0191221-1.2126045,0.0509701C53.395256,5.2508302,52.16222,6.7262588,52.16222,8.4528561 c0,1.7267656,1.2332764,3.2022905,2.9202385,3.4938507c0.4054184,0.0700684,0.8076973,0.0508957,1.2131157,0.0508957 c0.414875,0,0.8297501,0,1.2446289,0c0.8199348,0,1.6398697,0,2.4597969,0v-1.6360378c-1.0762711,0-2.1525383,0-3.2288094,0 c-0.2691269,0-0.5382423,0-0.807373,0c-0.3066826,0-0.4980469,0.0146084-0.8010254-0.0714865 c-0.5259819-0.1494694-0.9622192-0.5210896-1.1964149-1.0192051h5.493084V7.6348372h-5.493084 C54.2005119,7.1368432,54.6365891,6.7652788,55.1624222,6.6157389z M36.2163887,3.8174191h1.6216087V2.726727h-1.6216087V3.8174191z M36.2163887,4.9081101h1.6216087v7.0894914h-1.6216087V4.9081101z M50.4688835,6.1034789 c-1.4276428-1.6273217-3.957283-1.5872989-5.3336411,0.0843863c-1.3768158-1.6722364-3.907505-1.711637-5.3348083-0.0830593 c-0.3356285,0.3829579-0.5851707,0.8345861-0.7315483,1.323976c-0.1723709,0.5762992-0.1498146,0.9274116-0.1498146,1.5136333 c0,1.0183945,0,2.0367889,0,3.0551844h1.6216087c0-1.0906429,0-2.181283,0-3.2719269 c0-0.3005457-0.0129089-0.4848604,0.0684738-0.7816887c0.0776596-0.2832508,0.2029114-0.5190468,0.3936768-0.7411423 C41.3627357,6.783844,41.883007,6.5441437,42.43256,6.5441437c0.549839,0,1.0703583,0.2399521,1.4302635,0.6593275 c0.1907425,0.2222605,0.3159103,0.4581966,0.3934364,0.7415972c0.0811958,0.2968349,0.0681763,0.4815617,0.0681763,0.7820606 c0,1.0901566,0,2.1803131,0,3.2704697h1.6216125c0-1.0906439,0-2.181284,0-3.2719269 c0-0.3005466-0.0129089-0.4848614,0.06847-0.7816892c0.0776634-0.2832513,0.2029152-0.5190468,0.3936806-0.7411423 c0.3599014-0.4189978,0.8801765-0.6586981,1.4297256-0.6586981c0.549839,0,1.0703621,0.2399521,1.4302635,0.6593275 c0.1907425,0.2222605,0.3159142,0.4581962,0.3934364,0.7415972c0.0811996,0.2968354,0.0681801,0.4815612,0.0681801,0.7820601 c0,1.0901575,0,2.1803131,0,3.2704697h1.6216125c0-1.0183821,0-2.0367632,0-3.0551434 c0-0.5859985,0.0225639-0.9370012-0.1496468-1.5131025C51.0552406,6.9391723,50.8052254,6.4868622,50.4688835,6.1034789z M25.405653,11.9976015h1.6216106V0H25.405653V11.9976015z M29.7299461,1.6360359h-1.6216087c0,1.3273621,0,2.6547232,0,3.9820852 c0,0.6636448,0,1.3272896,0,1.9909358c0,0.1535316-0.0033054,0.8441224,0.003315,0.9977536 c0.0144978,0.3364325,0.0731506,0.6549854,0.1793823,0.9742241c0.4300156,1.2922449,1.5564041,2.2212391,2.8971825,2.3894663 c0.3254032,0.0408278,0.6492119,0.0271006,0.9743729,0.0271006c0.333374,0,0.666748,0,1.0001183,0 c0.6575356,0,1.3150673,0,1.9726067,0v-1.6360369c-0.6979065,0-1.395813,0-2.0937195,0c-0.3492165,0-0.6984329,0-1.0476532,0 c-0.3938541,0-0.648304,0.0245609-1.0334568-0.1204176c-0.6709862-0.2525759-1.1430912-0.865756-1.2196865-1.5841532 c-0.0185909-0.1743422-0.0108528-0.3479242-0.0108528-0.5220585c0-0.178236,0-0.3564692,0-0.5347028 c0-0.3520308,0-0.7040596,0-1.0560865h5.4053688V4.9081101h-5.4053688V1.6360359z"/></svg>