<svg xmlns="http://www.w3.org/2000/svg" id="logo" viewBox="0 0 140 80">
  <style>
    .st0{fill:#FFFFFF;}
  </style>
  <path id="kidstyle" d="M107.1003 33.1864s-.08696 2.93514-.51936 6.04352c-1.1367 8.17167-2.0852 12.29576-5.35868 17.2086-2.2452 3.3696-6.65543 6.97104-10.66322 8.04054-6.94484 1.85334-11.42162-2.80953-11.04213-7.48603.5434-6.69566 8.3719-7.28268 9.7531-5.6435.5384.63898-.4186.94074-.9763.86014-2.7143-.39217-5.8357.23634-6.3229 4.82035-.4207 3.95964 3.753 6.50716 8.011 5.58657 4.4002-.9513 7.1088-4.4036 9.292-7.7308 1.4021-2.1369 2.1869-4.7781 2.5674-6.3058.3968-1.5933.5526-3.3287.6288-4.1159-.6728 1.598-1.4649 2.5934-2.4151 2.5934-1.3881 0-2.7875-1.1834-3.5776-3.8619-.8813 2.2468-2.0423 3.9373-3.1879 3.9373-1.3456 0-3.2058-1.944-3.2058-7.1876 0-1.7617.0314-3.7888.1104-4.6546 0 0-.696.1741-.9337.1894-1.2608.0812-1.1895-2.2006-.6856-2.1556.5867.0524 1.66-.0632 1.66-.0632.1582-2.7861.4428-5.1005.7993-6.8213.2373-1.0647 4.1159-1.1291 4.0757-.8426l-.7518 3.3762c-.0389.2046-.4124 1.488-.7287 4.0855 0 0 .2663-.0428.5008-.0819 1.2635-.2106 1.2317.0832 1.1782.5304-.0641.5357-1.8717.9316-1.8717.9316-.6339 4.9155-1.1357 11.188.4859 11.2698.4315.0318 1.3627-1.6244 2.1661-4.3153-.2993-1.8658-.3636-4.2274-.0699-7.1353.1193-1.06534 3.8398-1.2326 3.7996-.9461-1.1473 9.4218-.7117 12.3698.6728 12.3698 1.2665 0 2.0183-3.2372 2.4539-7.37447.07907-1.4753.2372-3.3595.3565-4.2203.11928-1.0647 3.8787-1.2296 3.7996-.9014zm-54.25152 2.17087c-1.10773 6.71818.35648 12.4944 2.17723 12.4944.3006 0 1.0468-.1967 1.6128-1.03425.1928-.28522.1622-.63155-.1121-.62628-.4289.00822-.5.6772-1.065.71866-1.1448.08397.1186-5.24354 1.4247-12.41255.0791-.28712-3.8786-.20462-4.0374.86002zm2.85002-4.54718c1.3456 0 2.45395-1.1472 2.45395-2.54 0-1.3518-1.10835-2.4983-2.45395-2.4983s-2.454 1.1465-2.454 2.4983c0 1.3928 1.1084 2.5399 2.454 2.5399zm21.3279 17.4515c-3.63653-.2201-6.28717-1.9901-7.6191-4.2057-.70718 1.7634-1.5837 2.9766-2.58886 2.9766-.9502 0-1.89976-1.2291-2.37487-3.3591-.67285 2.0481-1.5835 3.4818-2.73077 3.4818-1.8207 0-4.47234-2.13-4.31424-6.3908.23724-4.7518 3.40357-7.4964 6.84732-7.9472.27672-5.4482.7914-10.4462 1.1472-11.798.23792-1.0647 3.72052-1.1465 3.64144-.8602-.83096 3.4818-1.9393 11.1017-2.09747 19.0898-.1186 4.5881-.03954 6.4317.4751 6.4317.46776 0 .97663-1.0472 1.47024-2.6936-.3038-.7789-.4621-1.5869-.4443-2.3863.0395-1.7618.9495-3.7274 2.3742-4.67 1.3067-.8601 3.2058-1.1882 3.9195-1.1063.5535.0818.4342.2053-.1193.8198-1.7812 1.8019-2.85 3.3181-3.0082 5.4891-.1984 2.9491 2.1765 5.6125 5.8186 5.899 4.0756.328 6.4907-1.7617 6.8861-5.1208.4758-3.9736-1.6619-5.53-4.7887-7.7017-3.4042-2.3347-7.7975-5.3255-7.4417-9.1763.3565-4.5056 5.0667-6.5129 9.5391-6.3082 4.3531.2046 6.4908 2.13 6.5698 5.0799.0791 3.7273-1.9782 6.1036-5.897 6.6772-.5535.0818-.6326-.2053 0-.7373 2.9686-2.5809 5.1854-9.6271-.91-9.9135-2.6912-.1234-5.0661 1.2284-5.4614 4.3828-.5147 4.0554 2.0184 5.1617 5.3422 7.2508 3.2058 2.0482 7.1246 5.2436 6.8875 9.5043-.3177 5.4073-5.6599 7.66-11.1226 7.2918zM64.20663 33.5137c-2.1377.5327-3.00817 3.15447-3.16633 6.75976-.11925 3.3591.3163 5.40726 1.2665 5.40726 1.0682 0 1.3852-2.94984 1.741-6.5954 0-1.8026.07907-3.6871.15883-5.57162zm10.2447 21.13863c.6333 6.43106-5.69936 11.2654-10.92357 10.20002-6.49077-1.3518-10.36955-8.56172-20.5413-24.7433-.6728-1.0646-1.3457-1.9663-1.9394-2.74453-.83164.40994-1.62332.69642-2.41473.86077-2.05793 11.3881-8.03527 17.328-12.94323 15.8944-3.71986-1.1063-5.3439-6.3499-2.21717-10.4462 2.61216-3.441 6.17235-4.2608 8.824-3.6872.4751.0819.58932.9017.391.8607-2.61216-.4509-6.34135.7373-7.9637 3.1538-1.74168 2.6217-.72973 6.1043 2.47608 6.6779 4.1555.7373 7.3666-3.6462 8.4348-12.536-3.0476-.9828-3.0477-4.4647.2379-5.53.0396 0 .1279 0 .1279-.0409v-1.0244c0-6.3492-.1279-9.0938-.1681-10.4047-9.5384 2.4983-15.7072 9.4627-17.0132 13.3136-1.2665 3.8508.7648 5.6119 3.5746 5.899.831.0818.9366.0409.6592.5736-.5541 1.1056-2.0252 1.8844-3.4894 1.6792-3.1663-.4502-5.5446-3.6864-4.1595-7.5782 1.7416-4.9162 10.6451-12.6588 21.1332-15.0753 1.1084-.4509 3.0864-.41 3.0864-.1644-.0791.8198-.0795 3.728-.2772 11.1017l-.0793 1.8026c1.1084.369 2.2555 1.0244 3.3639 1.9663 3.5624-3.4818 6.4117-9.709 7.124-13.3954.3565-1.7617.2774-5.1733.1588-5.5825-.079-.2462 1.0286-1.1881 2.6517-.3281 1.1479.6145 1.1479 5.009.7123 6.6479-1.3456 5.1207-5.3033 10.5689-9.4989 13.7234.831.86 1.6626 1.8844 2.4145 3.0719 7.7573 12.3307 12.5466 22.6132 18.1267 23.8422 4.8289 1.0647 7.8388-2.2728 7.4033-7.311-.3954-4.6291-4.0481-5.5661-6.5812-4.8698-1.2854.5814-1.412-.6555-.9764-.86 1.9789-.8608 9.7725-.6418 10.2864 5.0526zM36.02075 33.8418c-.19838 0-.39603.0409-.55418.08185-.95025.28648-.75187 2.21184.3558 2.94984.07976-.9836.15884-1.9671.19838-3.0317zm4.23446 2.62176c-.4348-.45083-.8309-.86002-1.2269-1.1881-.0395.6145-.1186 1.1881-.1977 1.76175.4751-.1227.9503-.328 1.4247-.5736zm84.7244 5.3392c-.4982 3.06352-2.5984 5.35256-5.6059 5.35256-1.7249 0-3.6904-1.12283-4.7008-3.27664-.6086 1.57234-2.1795 3.5229-3.3312 3.5229-2.7703 0-3.6114-4.67068-3.2161-11.71618.0791-1.3109.1984-2.66273.3967-4.01455-1.4649.2865-2.9686.24553-4.2351.0818-3.5623-.53263-5.8179-3.1135-5.7-4.91615.0791-1.18815 1.9394-2.2119 3.8398-2.4172.5535-.0818.0389.40993-.1984 1.22905-.5534 2.08982-.2774 4.62905 2.8105 5.2436 1.1084.20526 2.375.20526 3.6012-.08186 1.1486-7.2509 3.7206-14.2971 6.649-14.2971 1.6231 0 3.0088 4.7524.7532 9.3406-.9904 2.0481-2.3748 3.4409-3.8786 4.3828-.1595 1.8026-.3176 3.5643-.3565 5.0798-.2371 6.4316-.2788 10.7236.782 10.2834.7172-.2977 1.4886-2.2187 1.6609-2.9266-.1745-.6891-.2887-1.4313-.2587-2.2771.2373-4.9162 3.2447-7.2508 5.7778-7.2508 2.3749 0 4.2754 1.8845 3.9979 3.6046-.3162 2.3762-2.9686 4.4244-5.4226 5.1208-.2642.0872-.4831.1541-.6782.2101.1717 2.2527.8339 3.5997 2.3013 3.5997 2.2958 0 3.5826-1.862 4.0789-4.0584.1904-.8425 1.1006-.8487.9333.1803zM112.2817 29.1309c.95025-.73727 1.78115-1.7208 2.4151-2.9908 1.82005-3.80988 1.06817-7.57816.07907-7.57816-.9502 0-1.90046 5.24355-2.49417 10.56895zm5.34747 12.2466c.2046-.14004.4311-.29002.67638-.44856.7971-.51515 1.58284-2.00722 1.86025-3.48254.4745-2.2119-.04016-3.6046-.7532-3.6046-.8698 0-1.62165 2.2937-1.7798 6.02175-.018.53687-.0185 1.0398-.0036 1.51395z" class="st0"/>
</svg>
