<?xml version="1.0" encoding="utf-8"?>
<!-- Generator: Adobe Illustrator 19.2.0, SVG Export Plug-In . SVG Version: 6.00 Build 0)  -->
<svg version="1.1" id="icon" xmlns="http://www.w3.org/2000/svg" xmlns:xlink="http://www.w3.org/1999/xlink" x="0px" y="0px"
	 width="140px" height="140px" viewBox="0 0 140 140" style="enable-background:new 0 0 140 140;" xml:space="preserve">
<style type="text/css">
	.st0{fill:#444;}
</style>
<path id="girl" class="st0" d="M81.3,101.8c0.9,0.9,0.9,2.4,0,3.3c-3.1,3.1-7.2,4.7-11.3,4.7s-8.2-1.6-11.3-4.7
	c-0.9-0.9-0.9-2.4,0-3.3c0.9-0.9,2.4-0.9,3.3,0c4.4,4.4,11.6,4.4,16.1,0C78.9,100.9,80.4,100.9,81.3,101.8z M123.1,126.9
	c-0.2,0.7-0.7,1.4-1.4,1.6c-4.3,1.6-10.3,3.1-17.5,3.1c-4.3,0-9.1-0.5-14.3-1.9c-6.7-1.8-11.5-4.4-13.1-5.3
	c-2.2,0.4-4.5,0.6-6.8,0.6c-2.3,0-4.6-0.2-6.8-0.6c-1.6,0.9-6.4,3.5-13.1,5.3c-3.9,1-8.8,1.9-14.4,1.9c-5.4,0-11.3-0.8-17.4-3.1
	c-0.7-0.3-1.3-0.9-1.4-1.6c-0.2-0.7,0-1.5,0.5-2.1c5.4-6,5.7-21.4,5-37.3c-2.4-2.2-3.9-5.4-3.9-8.9c0-3.1,1.1-5.9,3-8
	c-0.8-16.2-1.2-27,3.9-37c0.3-0.6,0.6-1.1,0.9-1.7C30.2,25.6,37,21.5,44.6,21C50.4,13.9,58.9,9.7,68,9.3c10.4-0.4,20.6,2.2,29.5,7.3
	c7.7,4.4,13.4,10.1,16.9,17c5.1,10,4.7,20.8,3.9,37c1.9,2.1,3,5,3,8c0,3.5-1.5,6.7-3.9,8.9c-0.6,15.9-0.4,31.2,5,37.3
	C123.1,125.4,123.3,126.2,123.1,126.9z M112,71.5v0.4c0,0,0,0.1,0,0.1v11.5c0,0.8-0.1,1.6-0.2,2.4c3.1-1,5.2-3.8,5.2-7.2
	C117,75.3,115,72.5,112,71.5z M25.9,67.4c0.7-0.3,2.1-0.5,2.1-0.7v-0.4c0-1.2,1.1-2.2,2.3-2.3c9.3-1,15.4-5.3,18.8-13.5
	c0.3-0.7,1-1.3,1.7-1.4c0.8-0.1,1.6,0.1,2.1,0.7c4.6,4.8,22,20.2,54,19.9v-5.3c0-1.3,1.2-2.3,2.5-2.3c1.3,0,2.5,1,2.5,2.3v2.4
	c0,0.2,1.4,0.4,2.1,0.7c0.7-15,0.3-23.7-3.8-31.7c-3.1-6-8.2-11.1-15-15c-8.2-4.7-17.6-7-27.1-6.7c-8.1,0.3-15.6,4.3-20.6,10.8
	c-0.4,0.6-1.1,1.1-1.8,1.1c0,0,0,0,0,0c-6.4,0-12.2,3.2-15.3,8.5c-0.3,0.5-0.5,0.8-0.8,1.3C25.6,43.7,25.2,52.4,25.9,67.4z
	 M22.9,78.7c0,3.4,2.4,6.2,5.4,7.2c0-0.8-0.3-1.6-0.3-2.4v-12C25,72.5,22.9,75.3,22.9,78.7z M56.3,122.7c-14-4.9-24.6-17-27.2-31.9
	c-0.7-0.1-1.3-0.2-1.9-0.4c0.5,16-0.2,27.8-4.3,34.9C36.9,129.4,49.6,125.6,56.3,122.7z M107,83.5v-9.2c-14,0.2-27.1-2.6-38.6-8.1
	c-7.6-3.7-13.1-7.9-16.5-10.9C48,62.6,42,66.9,33,68.3v15.2c0,20.3,16.7,36.9,37,36.9C90.3,120.3,107,103.8,107,83.5z M117.1,125.2
	c-4.1-7.1-4.9-18.8-4.3-34.9c-0.6,0.2-1.3,0.3-1.9,0.4c-2.6,14.9-13.2,27-27.2,31.9c2,0.9,4.6,1.8,7.6,2.6
	C100.2,127.7,108.9,127.7,117.1,125.2z M42.2,76.6c-0.9,0.9-0.9,2.4,0,3.3c0.9,0.9,2.4,0.9,3.3,0c1.5-1.5,3.9-1.5,5.4,0
	c0.5,0.5,1,0.7,1.6,0.7c0.6,0,1.2-0.2,1.6-0.7c0.9-0.9,0.9-2.4,0-3.3C50.9,73.3,45.5,73.3,42.2,76.6z M97.8,79.9
	c0.9-0.9,0.9-2.4,0-3.3c-3.3-3.3-8.7-3.3-12,0c-0.9,0.9-0.9,2.4,0,3.3c0.9,0.9,2.4,0.9,3.3,0c1.5-1.5,3.9-1.5,5.4,0
	c0.5,0.5,1,0.7,1.6,0.7C96.7,80.6,97.3,80.3,97.8,79.9z"/>
</svg>
