<?xml version="1.0" encoding="utf-8"?>
<!-- Generator: Adobe Illustrator 19.2.0, SVG Export Plug-In . SVG Version: 6.00 Build 0)  -->
<svg version="1.1" id="icon" xmlns="http://www.w3.org/2000/svg" xmlns:xlink="http://www.w3.org/1999/xlink" x="0px" y="0px"
	 width="140px" height="140px" viewBox="0 0 140 140" style="enable-background:new 0 0 140 140;" xml:space="preserve">
<style type="text/css">
	.st0{fill:#444;}
</style>
<path id="boy" class="st0" d="M43.6,81.4c-0.9,0.9-2.4,0.9-3.3,0c-0.9-0.9-0.9-2.4,0-3.3c1.7-1.7,3.9-2.6,6.2-2.6
	c2.4,0,4.6,0.9,6.2,2.6c0.9,0.9,0.9,2.4,0,3.3c-0.5,0.5-1,0.7-1.6,0.7c-0.6,0-1.2-0.2-1.6-0.7c-0.8-0.8-1.9-1.2-3-1.2
	C45.5,80.1,44.4,80.6,43.6,81.4z M88.2,78.1c-0.9,0.9-0.9,2.4,0,3.3c0.9,0.9,2.4,0.9,3.3,0c1.6-1.6,4.3-1.6,6,0
	c0.5,0.5,1,0.7,1.6,0.7c0.6,0,1.2-0.2,1.6-0.7c0.9-0.9,0.9-2.4,0-3.3C97.2,74.7,91.6,74.7,88.2,78.1z M94.4,100.9
	c-13.2,13.2-34.6,13.2-47.8,0c-0.9-0.9-2.4-0.9-3.3,0c-0.9,0.9-0.9,2.4,0,3.3c7.5,7.5,17.3,11.2,27.2,11.2c9.8,0,19.7-3.7,27.2-11.2
	c0.9-0.9,0.9-2.4,0-3.3C96.7,100,95.3,100,94.4,100.9z M124.7,82.7c0,6.5-4.6,11.9-10.9,12.7c-1.5,8.9-5.7,17.1-12.2,23.6
	c-8.3,8.3-19.3,13-31.1,13c0,0,0,0,0,0c-11.8,0-22.8-4.8-31.1-13.2c-6.4-6.5-10.5-14.7-12.1-23.4c-6.3-0.8-11.1-6.2-11.1-12.7
	C16.3,76.4,21,71.1,27,70v-23c-1,0.3-1.3,0.7-1.7,1.1c-1.4,1.3-3.6,1.5-5.2,0.5c-1.6-1-2.3-2.9-1.7-4.7l1.1-3.3
	c0.6-1.8,1.5-3.5,2.6-5c1.3-12,9.6-20.4,24-24.4c11-3,22.7-2.7,33.9,1.1l14.4,4.9c4.4-1.6,9.2-1,13.1,1.6c4.2,2.8,6.4,7.4,6.4,12.4
	V70C120,71.1,124.7,76.4,124.7,82.7z M27,90.5c-0.1-1.1,0-2.1,0-3.2V74.8c-4,1-6.1,4.1-6.1,7.9C20.9,86.4,23.5,89.6,27,90.5z
	 M37.4,43.4c8.9,5.8,19.5,7.9,29.9,5.9c10.2-1.9,19.1-7.6,25.2-15.9l-0.2-11.9l-13.7-4.7c-10.3-3.5-21-3.8-31.2-1
	c-10.2,2.8-16.7,7.9-19.4,15c0.4-0.2,0.8-0.4,1.2-0.6c4.6-2,9.8-1.9,14.3,0.2c5.2,2.4,11.4,1.1,15.1-3.2l0.6-0.6
	c0.8-1,2.3-1,3.3-0.2c1,0.8,1,2.3,0.2,3.3l-0.6,0.6c-5.1,5.8-13.6,7.5-20.5,4.3c-3.3-1.6-7.2-1.6-10.5-0.2c-3.4,1.4-6,4.3-7.2,7.7
	l-0.4,1.3C27.6,40.7,33.1,40.6,37.4,43.4z M110,66.3c-10-1.1-17-9.4-17-19.4v-6.3C86,47.4,77.8,52,68.4,53.8
	c-11.6,2.2-23.7-0.1-33.5-6.6C33.7,46.5,32,46.1,31,46v41.3c0,10.6,4.2,20.5,11.6,28C50,122.9,60,127,70.5,127c0,0,0,0,0,0
	c10.5,0,20.5-4.1,27.9-11.5c7.4-7.4,11.6-17.3,11.6-27.8V66.3z M110,31.4c0-3.5-1.7-6.6-4.7-8.6c-2.5-1.7-5.5-2.1-8.3-1.4l0.2,25.4
	c0,7.5,5.7,13.7,12.7,14.8V31.4z M120,82.6c0-3.7-2-6.9-6-7.9v12.9c0,0.9,0.2,1.9,0.1,2.8C117.6,89.5,120,86.4,120,82.6z"/>
</svg>
