<?xml version="1.0" encoding="utf-8"?>
<!-- Generator: Adobe Illustrator 19.2.0, SVG Export Plug-In . SVG Version: 6.00 Build 0)  -->
<svg version="1.1" id="logo" xmlns="http://www.w3.org/2000/svg" xmlns:xlink="http://www.w3.org/1999/xlink" x="0px" y="0px"
	 width="140px" height="50px" viewBox="0 0 140 50" style="enable-background:new 0 0 140 50;" xml:space="preserve">
<style type="text/css">
	.st0{fill-rule:evenodd;clip-rule:evenodd;fill:#CFD2D4;}
</style>
<path id="wrangler" class="st0" d="M54.2,25.1c1.3,0,2.4,1.1,2.4,2.4c0,1.3-1.1,2.4-2.4,2.4c-1.3,0-2.4-1.1-2.4-2.4
	C51.8,26.2,52.9,25.1,54.2,25.1L54.2,25.1z M85.1,19.4c1.6,0,3,1.4,3,3.1c0,1.7-1.3,3.1-3,3.1c-1.6,0-3-1.4-3-3.1
	C82.1,20.7,83.5,19.4,85.1,19.4L85.1,19.4z M117.3,33.5l0-17.5l4.7,0l0,1.6c1.6-1.7,2.5-1.3,3.9-1.4l0,4.1c-3.2,1.3-4.5,3.7-4.5,6.6
	l0,6.6L117.3,33.5L117.3,33.5z M77.8,37.1l1.4-3.5c1.4,1.5,4.7,2.3,7.1,1.5c4.2-1.4,1.8-6.4-2.3-5.8c-1.1,0.2-2.2,0.6-3.2,0.8
	c0.3-0.9,0.5-0.9,0.5-1.7c-4.8-2.6-4.7-9.3,0-11.9c2.3-1.3,5.4-1.3,8.5-0.5c0.9,0.2,1.8,0,2.8,0c0,0.5-1,1.5-0.7,2
	c1.8,3.2,1.5,7.3-1.8,10C99.2,37.1,82.2,43.1,77.8,37.1L77.8,37.1z M32.3,33.9l-4.9-12.2L22.1,34L14,10.5l5,0l3.7,10l4.8-9.9
	l4.5,9.9l3.7-10l5.3,0L32.3,33.9L32.3,33.9z M62.4,33.5L62.4,16l4.8,0v0.8c1.5-2.1,9.5-2.1,9.5,2.9l0,13.7l-4.4,0l0-10.5
	c0-3.8-4.9-4-4.9-0.4l0,10.8L62.4,33.5L62.4,33.5z M104.7,32.6C97,28.1,99,19,105,16.5c4.3-1.8,10.2,0,11.5,4.9l-10,6.6
	c2.2,2.1,4.6,0.5,6.9-0.9l2.6,3.7c-0.8,0.9-1.7,1.5-2.7,2C110.3,34,107.4,34.2,104.7,32.6L104.7,32.6z M40.1,33.5l0-17.5l4.7,0
	l0,1.6c1.6-1.7,2.4-1.5,3.9-1.6l0,4.4c-3.2,1.3-4.4,3.7-4.4,6.6l0,6.6L40.1,33.5L40.1,33.5z M56.8,22.8l-0.3-2
	c-1.8-0.8-3.8-0.8-6.4-0.4V16c7.5-1.9,10.5-0.1,11.3,4l-0.1,13.4l-4.7,0l0-1.1C44.1,38.2,44.5,16.8,56.8,22.8L56.8,22.8z M94.3,33.5
	l0-22.9l4.8,0l0,22.9L94.3,33.5L94.3,33.5z M104.7,25.4c-0.5-3.6,2.8-7.2,7-4.8L104.7,25.4L104.7,25.4z"/>
</svg>
