<?xml version="1.0" encoding="utf-8"?>
<!-- Generator: Adobe Illustrator 19.2.0, SVG Export Plug-In . SVG Version: 6.00 Build 0)  -->
<svg version="1.1" id="logo" xmlns="http://www.w3.org/2000/svg" xmlns:xlink="http://www.w3.org/1999/xlink" x="0px" y="0px"
	 width="140px" height="50px" viewBox="0 0 140 50" style="enable-background:new 0 0 140 50;" xml:space="preserve">
<style type="text/css">
	.st0{fill-rule:evenodd;clip-rule:evenodd;fill:#CFD2D4;}
</style>
<path id="lotto" class="st0" d="M17.3,21.5l17.2-8.3l9.8,8.8l-6.9,3.6l3.5,3.7l-17.3,8l-9.3-8.6l6.6-3.6L17.3,21.5L17.3,21.5
	L17.3,21.5z M23.6,25.3l4.2,3.8l7.2-3.5l-4.3-4L23.6,25.3L23.6,25.3z M47.4,19.6l1.6-2.4l10.6,0L54.6,29c0,0-0.6,2.8,1.2,0.7
	c1.8-2.1,3.8-6.4,13.1-6.4c9.3,0,10.1,3.6,10.1,3.6s0.5-0.8,1-1.7c0.3-0.6,0.5-1,0.5-1h-2.7l1.6-2.5c0,0,3.7-0.3,4.9-1.6
	c1.2-1.3,2.2-2.6,2.2-2.6h6.8l-2,4.1l3.3,0c0,0,2.5-0.3,3.8-1.5c1.2-1.2,2.5-2.6,2.5-2.6h6.5l-1.7,3.9h5.2l-1,2.4h-5.3l-2.9,5.5
	c0,0-0.8,2.3,1.5,0.4c0.4-0.3,1.2-1.1,1.2-1.1l0.6-0.1c0,0,0.3-0.8,0.4-1.1c0.2-0.4,2.3-4,11.1-4c8.9,0,9.8,2.9,9.9,4.6
	c0,1.7-3.3,5.6-11.2,5.6c-7.9,0-10-2.4-10-2.4s-1.8,2.4-8,2.4c-6.2,0-4.5-4.3-3.6-6.4c0.9-2.2,1.3-3.1,1.3-3.1l-4.8,0L86.9,30
	c0,0-0.2,1.3,1.4,0.2C90,29,90,29,90,29l1.5,1.4c0,0-1.3,3.3-8.5,3.3c-5.8,0-5.2-3.2-5.2-3.2s0.3,0.1-2.2,1.7
	c-3.7,2.4-8.5,1.7-8.5,1.7s-6,0-8.7-2.3c-0.5-0.4-0.8-0.7-0.9-0.9c-0.3-0.7-0.1,2.7-7.6,2.8c-8,0.1-3.6-6.5-3.4-6.8l3.4-7L47.4,19.6
	L47.4,19.6L47.4,19.6z M66.6,31.7c1.2,0.1,2.7-1.2,3.4-2.8c0.7-1.6,0.3-3-0.8-3.1c-1.2-0.1-2.7,1.2-3.4,2.8
	C65.1,30.2,65.5,31.6,66.6,31.7L66.6,31.7L66.6,31.7z M114.1,31.7c1.2,0.1,2.7-1.2,3.4-2.8c0.7-1.6,0.3-3-0.8-3.1
	c-1.2-0.1-2.7,1.2-3.4,2.8C112.6,30.2,113,31.7,114.1,31.7L114.1,31.7z"/>
</svg>
