<?xml version="1.0" encoding="utf-8"?>
<!-- Generator: Adobe Illustrator 19.2.0, SVG Export Plug-In . SVG Version: 6.00 Build 0)  -->
<svg version="1.1" id="logo" xmlns="http://www.w3.org/2000/svg" xmlns:xlink="http://www.w3.org/1999/xlink" x="0px" y="0px"
	 width="140px" height="50px" viewBox="0 0 140 50" style="enable-background:new 0 0 140 50;" xml:space="preserve">
<style type="text/css">
	.st0{fill:#CFD2D4;}
</style>
<path id="ecco" class="st0" d="M50.9,13.9c1.5-0.6,3-0.8,4.7-0.8c4.2,0,8,2,10.5,5c0.3,0.4,0.5,0.9,0.5,1.5c0,0.8-0.3,1.4-0.9,1.8
	l0,0c-0.4,0.3-0.9,0.5-1.4,0.5c-0.7,0-1.4-0.3-1.8-0.9c-0.5-0.6-1.1-1.2-1.7-1.6c-1.5-1-3.3-1.7-5.2-1.7c-1.1,0-2.1,0.2-3.1,0.6
	c-1.9,0.7-3.5,2-4.5,3.7c-0.8,1.4-1.3,3-1.3,4.7c0,1.3,0.3,2.4,0.7,3.5c0.6,1.4,1.6,2.7,2.8,3.6c1.5,1.1,3.3,1.8,5.3,1.8
	c2.8,0,5.3-1.3,6.9-3.3c0.4-0.5,1.1-0.9,1.8-0.9c1.3,0,2.3,1,2.3,2.3c0,0.6-0.2,1.1-0.5,1.5c-2.5,3.1-6.3,5.1-10.6,5.1
	c-7.5,0-13.6-6.1-13.6-13.6c0-2.6,0.8-5.1,2.1-7.2C45.7,16.9,48.1,14.9,50.9,13.9z M72.2,19.4c-1.3,2.1-2.1,4.6-2.1,7.2
	c0,7.5,6.1,13.6,13.6,13.6c4.3,0,8.1-2,10.6-5.1c0.3-0.4,0.5-0.9,0.5-1.5c0-1.3-1-2.3-2.3-2.3c-0.7,0-1.4,0.3-1.8,0.9
	c-1.6,2-4.1,3.3-6.9,3.3c-2,0-3.8-0.7-5.3-1.8c-1.2-0.9-2.2-2.2-2.8-3.6c-0.5-1.1-0.7-2.3-0.7-3.5c0-1.7,0.5-3.3,1.3-4.7
	c1-1.7,2.6-3,4.5-3.7c1-0.4,2-0.6,3.1-0.6c1.9,0,3.7,0.6,5.2,1.7c0.6,0.5,1.2,1,1.7,1.6c0.4,0.5,1.1,0.9,1.8,0.9
	c0.5,0,1-0.2,1.4-0.5l0,0c0.6-0.4,0.9-1.1,0.9-1.8c0-0.6-0.2-1.1-0.5-1.5c-2.5-3.1-6.3-5-10.5-5c-1.7,0-3.2,0.3-4.7,0.8
	C76.2,14.9,73.7,16.9,72.2,19.4z M101.2,35.1c2.5,3.1,6.3,5.1,10.6,5.1c7.5,0,13.6-6.1,13.6-13.6c0-2.6-0.8-5.1-2.1-7.2
	c-0.4-0.7-1.2-1.1-2-1.1c-1.3,0-2.3,1-2.3,2.3c0,0.5,0.2,1,0.4,1.3c0.8,1.4,1.3,3,1.3,4.7c0,1.3-0.3,2.4-0.7,3.5
	c-0.6,1.4-1.6,2.7-2.8,3.6c-1.5,1.1-3.3,1.8-5.3,1.8c-2.8,0-5.3-1.3-6.9-3.3c-1.3-1.5-2-3.4-2-5.6c0-3,1.5-5.6,3.7-7.2
	c1.5-1,3.3-1.7,5.2-1.7c1.1,0,2.1,0.2,3.1,0.6c0.2,0.1,0.5,0.1,0.8,0.1c1.3,0,2.3-1,2.3-2.3c0-1-0.6-1.9-1.5-2.2
	c-1.5-0.6-3-0.8-4.7-0.8c-4.3,0-8.1,2-10.5,5c-1.9,2.3-3,5.3-3,8.5C98.2,29.8,99.4,32.8,101.2,35.1z M22.9,13.9
	c-0.9,0.3-1.5,1.2-1.5,2.2c0,1.3,1,2.3,2.3,2.3c0.3,0,0.6-0.1,0.8-0.1c1-0.4,2-0.6,3.1-0.6c1.9,0,3.7,0.7,5.2,1.7L19.4,30.1
	c-0.5-1.1-0.7-2.3-0.7-3.5c0-1.7,0.5-3.3,1.3-4.7c0.2-0.4,0.4-0.9,0.4-1.3c0-1.3-1-2.3-2.3-2.3c-0.8,0-1.6,0.5-2,1.1
	c-1.3,2.1-2.1,4.6-2.1,7.2c0,7.5,6.1,13.6,13.6,13.6c4.3,0,8.1-2,10.6-5.1c0.3-0.4,0.5-0.9,0.5-1.5c0-1.3-1-2.3-2.3-2.3
	c-0.7,0-1.4,0.3-1.8,0.9c-1.6,2-4.1,3.3-6.9,3.3c-2,0-3.8-0.7-5.3-1.8l15.5-12.4c0.6-0.4,0.9-1.1,0.9-1.8c0-0.6-0.2-1.1-0.5-1.5
	c-2.5-3.1-6.3-5-10.5-5C25.9,13,24.4,13.3,22.9,13.9z M124.1,11.5 M123.1,9.8c1.6,0,2.9,1.3,2.9,2.9c0,1.6-1.3,2.9-2.9,2.9
	c-1.6,0-2.9-1.3-2.9-2.9C120.2,11.1,121.5,9.8,123.1,9.8z M123.1,15.1c1.3,0,2.3-1,2.3-2.3c0-1.3-1.1-2.3-2.3-2.3
	c-1.3,0-2.3,1.1-2.3,2.3C120.8,14,121.8,15.1,123.1,15.1z M122.7,11.7h0.2c0.3,0,0.6,0,0.6,0.4c0,0.4-0.3,0.4-0.6,0.4h-0.2V11.7z
	 M122.2,14.2h0.6V13h0.2c0.2,0,0.3,0.1,0.4,0.3l0.3,0.9h0.6l-0.5-1.1c-0.1-0.1-0.1-0.3-0.3-0.3v0c0.4,0,0.6-0.3,0.6-0.7
	c0-0.8-0.7-0.8-1.4-0.8h-0.6V14.2z"/>
</svg>
