<?xml version="1.0" encoding="utf-8"?>
<!-- Generator: Adobe Illustrator 19.2.0, SVG Export Plug-In . SVG Version: 6.00 Build 0)  -->
<svg version="1.1" id="logo" xmlns="http://www.w3.org/2000/svg" xmlns:xlink="http://www.w3.org/1999/xlink" x="0px" y="0px"
	 width="140px" height="50px" viewBox="0 0 140 50" style="enable-background:new 0 0 140 50;" xml:space="preserve">
<style type="text/css">
	.st0{fill-rule:evenodd;clip-rule:evenodd;fill:#CFD2D4;}
</style>
<path id="columbia" class="st0" d="M17.7,22.8l3.4,3.4c0.8,0.9,0.8,2.2,0,3.1c-0.9,0.8-2.2,0.8-3.1,0l-3.4-3.4c-0.8-0.8-0.8-2.2,0-3
	C15.5,21.9,16.9,21.9,17.7,22.8L17.7,22.8z M21.1,19.4c-0.8-0.9-2.2-0.9-3,0c-0.9,0.8-0.9,2.2,0,3l3.4,3.4c0.9,0.8,2.2,0.8,3.1,0
	c0.8-0.9,0.8-2.2,0-3.1L21.1,19.4L21.1,19.4z M31.1,22.9c-0.8-0.8-2.2-0.8-3.1,0c-0.8,0.9-0.8,2.2,0,3.1l3.4,3.4
	c0.8,0.9,2.2,0.9,3.1,0c0.8-0.8,0.8-2.2,0-3L31.1,22.9L31.1,22.9z M24.8,19.3c-0.9,0.9-0.9,2.2,0,3.1c0.8,0.9,2.2,0.9,3,0l3.4-3.4
	c0.8-0.9,0.8-2.2,0-3.1c-0.9-0.8-2.2-0.8-3.1,0L24.8,19.3L24.8,19.3z M34.5,19.4c-0.8-0.8-2.2-0.8-3,0c-0.9,0.8-0.9,2.2,0,3.1
	l3.4,3.4c0.9,0.9,2.2,0.9,3.1,0c0.8-0.8,0.8-2.2,0-3.1L34.5,19.4L34.5,19.4z M21.4,15.9c-0.8,0.9-0.8,2.2,0,3.1
	c0.9,0.8,2.2,0.8,3.1,0l3.4-3.4c0.8-0.8,0.8-2.2,0-3c-0.9-0.9-2.2-0.9-3.1,0L21.4,15.9L21.4,15.9z M24.8,32.9c-0.9,0.8-0.9,2.2,0,3
	c0.8,0.9,2.2,0.9,3,0l3.4-3.4c0.8-0.9,0.8-2.2,0-3.1c-0.9-0.8-2.2-0.8-3.1,0L24.8,32.9L24.8,32.9z M21.4,29.5c-0.9,0.8-0.9,2.2,0,3
	c0.8,0.9,2.2,0.9,3,0l3.4-3.4c0.8-0.9,0.8-2.2,0-3.1c-0.9-0.8-2.2-0.8-3.1,0L21.4,29.5L21.4,29.5z M124.4,35.9
	c0.1,0.1,0.2,0.2,0.3,0.4l0.3,0.4h-0.4l-0.2-0.3c-0.1-0.3-0.3-0.4-0.3-0.5c-0.1,0-0.1-0.1-0.3-0.1h-0.2v0.9h-0.3v-2.1h0.7
	c0.3,0,0.4,0,0.6,0c0.1,0,0.2,0.1,0.3,0.2c0.1,0.1,0.1,0.2,0.1,0.3c0,0.1,0,0.3-0.1,0.4c-0.1,0.1-0.3,0.1-0.4,0.2
	C124.3,35.7,124.4,35.8,124.4,35.9L124.4,35.9z M124,35.5c0.2,0,0.3,0,0.4-0.1c0.1-0.1,0.1-0.1,0.1-0.2c0-0.1,0-0.1-0.1-0.2
	c0,0-0.1-0.1-0.1-0.1c-0.1,0-0.2,0-0.3,0h-0.4v0.6H124L124,35.5z M125.7,34.6c0.2,0.3,0.3,0.6,0.3,1c0,0.3-0.1,0.7-0.3,1
	c-0.1,0.3-0.4,0.6-0.7,0.7c-0.3,0.2-0.6,0.3-1,0.3s-0.7-0.1-1-0.3c-0.3-0.1-0.6-0.4-0.7-0.7c-0.2-0.3-0.3-0.6-0.3-1
	c0-0.3,0.1-0.7,0.3-1c0.2-0.3,0.4-0.6,0.7-0.7c0.3-0.2,0.6-0.3,1-0.3s0.6,0.1,1,0.3C125.3,34.1,125.6,34.3,125.7,34.6L125.7,34.6z
	 M125.5,36.4c0.1-0.2,0.2-0.5,0.2-0.8c0-0.3,0-0.6-0.2-0.8c-0.1-0.3-0.4-0.4-0.6-0.6c-0.3-0.1-0.5-0.2-0.8-0.2
	c-0.3,0-0.5,0.1-0.8,0.2c-0.3,0.1-0.5,0.3-0.6,0.6c-0.1,0.3-0.2,0.5-0.2,0.8c0,0.3,0.1,0.6,0.2,0.8c0.1,0.3,0.4,0.5,0.6,0.6
	c0.3,0.1,0.6,0.2,0.8,0.2c0.3,0,0.6-0.1,0.8-0.2C125.1,36.9,125.3,36.6,125.5,36.4L125.5,36.4z M54.6,17L54,17.1
	c-0.6-2.2-1.6-3.9-5-3.9c-3.7,0-5.6,2.9-5.6,6.8c0,3.7,1.9,7.5,6.1,7.5c2.4,0,3.9-1.5,4.5-3.7l0.6,0.1c-0.3,1.2-0.4,2.4-0.6,3.6
	c-1.3,0.6-3.1,1-5.1,1c-5,0-8.7-2.8-8.7-8.3c0-5,4-7.9,8.6-7.9c2.6,0,3.4,0.8,5.5,1.1C54.4,14.5,54.5,15.7,54.6,17L54.6,17z
	 M60.1,18.5c-2.3,0-2.5,2.8-2.5,4.6c0,1.9,0.6,4.5,2.7,4.5c2.1,0,2.5-2.1,2.5-4.1C62.8,21.8,62.2,18.5,60.1,18.5L60.1,18.5z
	 M54.8,23c0-3,2.2-5.3,5.3-5.3c3.2,0,5.3,2,5.3,5.2c0,3-2.3,5.5-5.3,5.5C57,28.4,54.8,26.1,54.8,23L54.8,23z M66.7,26.7
	c0,0.7-0.6,0.7-1.3,0.7V28c0.8-0.1,1.7-0.1,2.6-0.1c0.9,0,1.7,0,2.5,0.1v-0.7h-0.2c-0.6,0-1.2-0.1-1.2-0.7V11.2L68.9,11
	c-1.1,0.5-2.6,1-3.5,1.3v0.5c0.2,0.1,0.5,0.2,0.7,0.3c0.5,0.2,0.6,0.4,0.6,0.9V26.7L66.7,26.7z M71.4,25.8v-6c0-0.3-0.1-0.5-0.5-0.6
	l-0.9-0.3v-0.5c1.3-0.1,2.7-0.3,3.8-0.6l0.2,0.1c0,0.6-0.1,1.3-0.1,2v4.9c0,1.3,0.6,1.8,1.6,1.8c0.8,0,1.6-0.5,2.1-0.9V20
	c0-0.5-0.1-0.6-0.5-0.7l-1.1-0.4v-0.5c1.1-0.1,3-0.2,4-0.6l0.2,0.1c-0.1,0.6-0.1,1.3-0.1,2v6.4c0,0.6,0.1,0.8,0.6,0.8h0.7v0.5
	c-1.2,0.2-2.5,0.4-3.5,0.9l-0.2-0.2v-1.6c-1,0.8-2.2,1.8-3.5,1.8C72.1,28.4,71.4,27.3,71.4,25.8L71.4,25.8z M81.8,28v-0.7H82
	c0.6,0,1.2,0,1.2-0.7v-6.3c0-0.4,0-0.5-0.5-0.6c-0.3-0.1-0.5-0.1-0.8-0.2V19c0.7-0.2,1.4-0.4,2-0.6c0.5-0.2,1-0.5,1.5-0.7l0.3,0.2
	v1.4c0.9-0.6,2.2-1.6,3.4-1.6c1.2,0,2.2,0.5,2.6,1.6c1.1-0.7,2.4-1.6,3.6-1.6c1.6,0,2.8,0.9,2.8,2.9v6.1c0,0.6,0.4,0.7,1,0.7h0.3V28
	c-0.9-0.1-1.7-0.1-2.5-0.1c-0.9,0-1.8,0-2.6,0.1v-0.7h0.3c0.6,0,1-0.1,1-0.7v-5.5c0-1.3-0.6-1.8-1.7-1.8c-0.7,0-1.5,0.4-2,0.7v6.6
	c0,0.6,0.4,0.7,1,0.7h0.3V28c-0.8-0.1-1.7-0.1-2.5-0.1c-0.9,0-1.8,0-2.6,0.1v-0.7h0.3c0.6,0,1.1-0.1,1.1-0.7v-5.5
	c0-1.3-0.6-1.8-1.7-1.8c-0.7,0-1.5,0.4-2,0.8v6.5c0,0.7,0.6,0.7,1.1,0.7H87V28c-0.9-0.1-1.7-0.1-2.6-0.1C83.5,27.9,82.6,28,81.8,28
	L81.8,28z M99.8,26.3c0,0.6,0,1.2-0.1,1.9l0.4,0.2c0.3-0.3,0.7-0.7,1-0.9c0.7,0.5,1.9,0.9,3.2,0.9c3.1,0,5.6-2.3,5.6-5.8
	c0-2.7-1.5-4.9-4.2-4.9c-1.4,0-2.3,0.6-3.4,1.4v-7.9L102,11c-1.2,0.6-2.5,1.1-3.7,1.5v0.4c0.5,0.2,1,0.3,1.5,0.6V26.3L99.8,26.3z
	 M102.3,19.8c0.5-0.3,1.1-0.6,1.8-0.6c2.1,0,3,2.5,3,4.5c0,1.7-0.4,3.9-2.5,3.9c-1.1,0-2-1.1-2.3-1.6V19.8L102.3,19.8z M115.8,19.3
	c0,0,1.7-1.2,3.7-1.6c2,0,3,1,3,2.9v4.5c0,0.9,0,1.6,0.7,1.6c0.2,0,0.5-0.1,0.6-0.3l0.3,0.4c-0.7,0.8-1.3,1.4-2.3,1.4
	c-1.1,0-1.6-0.7-1.7-1.8c-1,1-2,1.8-3.4,1.8c-0.7,0-1.3-0.2-1.8-0.7V28c-0.9-0.1-1.7-0.1-2.5-0.1c-0.9,0-1.8,0-2.7,0.1v-0.7h0.1
	c0.7,0,1.2,0,1.2-0.7v-6.3c0-0.4,0-0.5-0.5-0.6c-0.3-0.1-0.5-0.1-0.8-0.2V19c0.7-0.2,1.5-0.4,2-0.6c0.5-0.2,1.1-0.5,1.6-0.7l0.2,0.2
	v8.9c0,0.6,0.5,0.6,1.1,0.6h0c-0.2-0.4-0.4-0.8-0.4-1.3c0-1.8,1.4-2.3,3-2.8l2.8-1V21c0-1.3-0.8-1.8-1.8-1.8c-1.3,0-1.6,0.3-1.7,1.6
	c-0.1,0.6-1.3,0.9-1.6,0.9c-0.2,0-0.4-0.1-0.4-0.5C114.6,20.3,115.1,19.7,115.8,19.3L115.8,19.3z M113.6,13.2c0,0.7-0.6,1.3-1.3,1.3
	c-0.7,0-1.4-0.6-1.4-1.3c0-0.7,0.6-1.4,1.4-1.4C113,11.9,113.6,12.5,113.6,13.2L113.6,13.2z M120,25.7V23c-1.2,0.4-3.3,0.8-3.3,2.4
	c0,1,0.5,1.5,1.3,1.5C119.1,26.8,119.8,26,120,25.7L120,25.7z M62.6,32.9c0-0.4,0.3-0.6,0.7-0.6c0.7,0,0.9,0.4,0.9,1l0.3,0
	c0-0.4,0-0.7,0-1.1c-0.4-0.1-0.7-0.3-1.2-0.3c-0.9,0-1.6,0.6-1.6,1.5c0,1.6,2,1.4,2,2.4c0,0.4-0.4,0.7-0.8,0.7c-0.6,0-0.9-0.5-1-1.1
	l-0.3,0.1l0,0.5l-0.1-0.1C61.4,35.9,61.2,36,61,36c-0.3,0-0.6-0.1-0.6-0.6v-2.8h1.2v-0.6h-1.2v-1l-0.1-0.1c-0.4,0.5-0.9,1-1.4,1.3
	c-0.1-0.2-0.3-0.3-0.6-0.3c-0.5,0-1,0.5-1.2,0.8h0V32L57,31.9c-0.6,0.3-1.1,0.5-1.6,0.6v0.3c0.1,0,0.2,0,0.3,0.1
	c0.3,0,0.3,0.1,0.3,0.4v2.8c0,0.2-0.2,0.3-0.6,0.3h-0.1v0.3c0.4,0,0.9,0,1.3,0c0.5,0,1,0,1.5,0v-0.3h-0.1c-0.5,0-0.8,0-0.8-0.3v-2.6
	c0-0.5,0.3-0.7,0.6-0.7c0.3,0,0.3,0.4,0.7,0.4c0.3,0,0.5-0.2,0.6-0.5h0.3v3.1c0,0.6,0.3,1,1,1c0.6,0,1-0.3,1.4-0.8l0,0.6
	c0.4,0.1,0.7,0.3,1.2,0.3c0.8,0,1.7-0.4,1.7-1.5C64.6,33.7,62.6,34,62.6,32.9L62.6,32.9z M53,31.9c1.5,0,2.5,1,2.5,2.4
	c0,1.4-1.1,2.5-2.5,2.5c-1.5,0-2.4-1-2.4-2.4C50.6,33,51.6,31.9,53,31.9L53,31.9z M53.1,36.4c0.9,0,1.1-1,1.1-1.9
	c0-0.7-0.2-2.2-1.2-2.2c-1.1,0-1.2,1.3-1.2,2.1C51.8,35.2,52.1,36.4,53.1,36.4L53.1,36.4z M42.4,31.1c0-0.8,0.4-1.3,1.3-1.3
	c0.7,0,1.1,0.6,1.2,1.3l0.3-0.1c0-0.5-0.1-1-0.1-1.5c-0.3,0-1.2-0.1-1.5-0.1c-1.3,0-2.2,0.8-2.2,2.1c0,2.5,3,1.9,3,3.7
	c0,0.7-0.6,1.2-1.2,1.2c-1,0-1.5-0.7-1.6-1.6l-0.3,0c0,0.5,0.1,1,0.1,1.6c0.5,0.3,1.1,0.4,1.6,0.4c1.3,0,2.5-0.7,2.5-2.1
	C45.5,32.2,42.4,32.7,42.4,31.1L42.4,31.1z M72.2,32.4v-0.3c-0.3,0-0.5,0-0.8,0c-0.3,0-0.6,0-0.9,0v0.3h0.1c0.3,0,0.4,0,0.4,0.3
	c0,0.1,0,0.3-0.1,0.4l-0.8,2.1l-0.9-2.2c-0.1-0.1-0.1-0.2-0.1-0.4c0-0.1,0.3-0.1,0.4-0.1h0.1v-0.3c-0.4,0-0.7,0-1.1,0
	c-0.4,0-0.9,0-1.3,0v0.3h0.1c0.2,0,0.4,0,0.5,0.2l0.3,0.6l-0.9,2l-1-2.4c0-0.1-0.1-0.2-0.1-0.3c0-0.1,0.3-0.1,0.4-0.1h0.1v-0.3
	c-0.4,0-0.7,0-1.1,0c-0.4,0-0.8,0-1.2,0v0.3h0.1c0.4,0,0.4,0.1,0.6,0.5l1.6,3.9h0.3l1.3-3.1l1.2,3.1H70l1.5-3.7
	C71.6,32.8,71.7,32.4,72.2,32.4L72.2,32.4L72.2,32.4z M48.7,31.9c1.2,0,1.8,1,1.8,2c0,1.6-1.2,2.8-2.5,2.8c-0.3,0-0.7-0.1-0.9-0.1
	v1.8c0,0.3,0.3,0.3,0.7,0.3h0.2V39c-0.5,0-0.9,0-1.4,0c-0.4,0-0.9,0-1.3,0v-0.3h0.1c0.2,0,0.5,0,0.5-0.2V33c0-0.2-0.1-0.2-0.3-0.3
	c-0.1,0-0.2,0-0.3-0.1v-0.2c0.6-0.2,1.1-0.4,1.6-0.7l0.1,0.1v0.7C47.5,32.2,48.1,31.9,48.7,31.9L48.7,31.9z M48.1,36.3
	c1,0,1.2-0.9,1.2-1.7c0-0.9-0.4-1.9-1.4-1.9c-0.3,0-0.6,0.1-0.8,0.3v2.7C47.2,35.7,47.6,36.3,48.1,36.3L48.1,36.3z M88.3,29.8
	c1.5,0,2,0.8,2.3,1.8l0.3,0c-0.1-0.6-0.1-1.2-0.1-1.7c-0.9-0.1-1.3-0.5-2.5-0.5c-2.1,0-3.9,1.3-3.9,3.6c0,2.5,1.7,3.8,4,3.8
	c0.9,0,1.7-0.2,2.3-0.4c0.1-0.6,0.1-1.1,0.3-1.6l-0.3-0.1c-0.3,1-1,1.7-2,1.7c-1.9,0-2.8-1.7-2.8-3.4C85.7,31.2,86.6,29.8,88.3,29.8
	L88.3,29.8z M121.9,32.1c-0.3,0-0.6,0-0.9,0v0.3h0.1c0.3,0,0.5,0,0.5,0.2c0,0.1,0,0.3-0.1,0.6l-0.8,2l-0.9-2.3
	c-0.1-0.1-0.1-0.3-0.1-0.3c0-0.1,0.3-0.1,0.4-0.1h0.1v-0.3c-0.4,0-0.7,0-1.1,0c-0.4,0-0.8,0-1.2,0v0.3h0.1c0.2,0,0.3,0.1,0.5,0.5
	l1.5,3.8l-0.5,1.3c-0.1-0.1-0.3-0.1-0.5-0.1c-0.3,0-0.6,0.3-0.6,0.5c0,0.4,0.3,0.6,0.6,0.6c0.4,0,0.6-0.3,0.8-0.7l2-5
	c0.3-0.7,0.4-0.9,0.6-0.9h0.2v-0.3C122.4,32.1,122.1,32.1,121.9,32.1L121.9,32.1z M93.4,31.9c1.5,0,2.5,1,2.5,2.4
	c0,1.4-1.1,2.5-2.5,2.5c-1.4,0-2.4-1-2.4-2.4C90.9,33,92,31.9,93.4,31.9L93.4,31.9z M93.4,36.4c0.9,0,1.1-1,1.1-1.9
	c0-0.7-0.2-2.2-1.2-2.2c-1,0-1.2,1.3-1.2,2.1C92.2,35.2,92.4,36.4,93.4,36.4L93.4,36.4z M103.8,36.3h-0.1c-0.3,0-0.5,0-0.5-0.3v-2.8
	c0-0.9-0.5-1.3-1.3-1.3c-0.5,0-1.1,0.4-1.6,0.7c-0.2-0.5-0.6-0.7-1.2-0.7c-0.6,0-1.2,0.5-1.6,0.7V32l-0.1-0.1
	c-0.2,0.1-0.5,0.2-0.7,0.3c-0.3,0.1-0.6,0.2-0.9,0.3v0.3c0.1,0,0.2,0.1,0.4,0.1c0.2,0,0.2,0.1,0.2,0.3V36c0,0.3-0.2,0.3-0.5,0.3
	h-0.1v0.3c0.4,0,0.8,0,1.2,0c0.4,0,0.8,0,1.2,0v-0.3H98c-0.2,0-0.5,0-0.5-0.3v-2.9c0.2-0.2,0.6-0.4,0.9-0.4c0.5,0,0.8,0.3,0.8,0.9
	V36c0,0.3-0.2,0.3-0.5,0.3h-0.1v0.3c0.4,0,0.8,0,1.2,0c0.4,0,0.7,0,1.1,0v-0.3h-0.1c-0.3,0-0.5,0-0.5-0.3v-3
	c0.2-0.1,0.6-0.3,0.9-0.3c0.5,0,0.8,0.3,0.8,0.9V36c0,0.3-0.2,0.3-0.5,0.3h-0.1v0.3c0.4,0,0.8,0,1.2,0c0.4,0,0.7,0,1.1,0V36.3
	L103.8,36.3z M106.8,31.9c1.2,0,1.8,1,1.8,2c0,1.6-1.2,2.8-2.5,2.8c-0.3,0-0.7-0.1-0.9-0.1v1.8c0,0.3,0.3,0.3,0.7,0.3h0.2V39
	c-0.4,0-0.9,0-1.4,0c-0.4,0-0.9,0-1.3,0v-0.3h0.1c0.3,0,0.5,0,0.5-0.2V33c0-0.2-0.1-0.2-0.3-0.3c-0.1,0-0.2,0-0.3-0.1v-0.2
	c0.6-0.2,1.1-0.4,1.6-0.7l0.1,0.1v0.7C105.6,32.2,106.2,31.9,106.8,31.9L106.8,31.9z M106.3,36.3c0.9,0,1.2-0.9,1.2-1.7
	c0-0.9-0.4-1.9-1.4-1.9c-0.3,0-0.6,0.1-0.8,0.3v2.7C105.3,35.7,105.7,36.3,106.3,36.3L106.3,36.3z M83,31.9c0.3,0,0.7,0.2,0.7,0.6
	c0,0.4-0.3,0.6-0.6,0.6c-0.4,0-0.4-0.4-0.7-0.4c-0.2,0-0.6,0.2-0.6,0.7v2.6c0,0.3,0.3,0.3,0.7,0.3h0.2v0.3c-0.5,0-1,0-1.5,0
	c-0.4,0-0.9,0-1.3,0v-0.1c-0.2,0.1-0.4,0.2-0.7,0.2c-0.5,0-0.7-0.3-0.8-0.8c-0.4,0.4-0.9,0.8-1.6,0.8c-0.6,0-1.1-0.4-1.1-1
	c0-0.8,0.6-1,1.4-1.3l1.2-0.4v-0.6c0-0.6-0.3-0.8-0.8-0.8c-0.6,0-0.7,0.1-0.8,0.7c0,0.3-0.6,0.4-0.7,0.4c-0.1,0-0.2-0.1-0.2-0.2
	c0-0.4,0.3-0.7,0.6-0.9c0.3-0.2,0.7-0.4,1.1-0.6c0.2-0.1,0.4-0.1,0.6-0.1c0.9,0,1.4,0.5,1.4,1.4v2c0,0.4,0,0.7,0.3,0.7
	c0.1,0,0.2,0,0.3-0.1l0.1,0.2c-0.1,0-0.1,0.1-0.2,0.2c0.3,0,0.4-0.1,0.4-0.3v-2.8c0-0.3-0.1-0.4-0.3-0.4c-0.1,0-0.2-0.1-0.3-0.1
	v-0.3c0.5-0.1,1.1-0.3,1.6-0.6l0.1,0.1v0.7h0C82.1,32.4,82.5,31.9,83,31.9L83,31.9z M78.6,35.6v-1.2c-0.6,0.1-1.5,0.4-1.5,1.1
	c0,0.4,0.2,0.6,0.6,0.6C78.2,36.1,78.5,35.7,78.6,35.6L78.6,35.6z M75.8,35.3l0.1,0.2c-0.4,0.7-1.1,1.3-1.9,1.3c-1.3,0-2-1.2-2-2.3
	c0-1.3,0.9-2.5,2.2-2.5c1,0,1.6,0.8,1.6,1.8l-0.1,0.1H73c0,1,0.5,2,1.6,2C75.1,35.9,75.5,35.7,75.8,35.3L75.8,35.3z M74.1,32.3
	c-0.6,0-0.9,0.6-1,1.2h1.2c0.5,0,0.6,0,0.6-0.4C74.9,32.7,74.6,32.3,74.1,32.3L74.1,32.3z M117.5,36c0,0.3,0.3,0.3,0.5,0.3h0.1v0.3
	c-0.4,0-0.7,0-1.1,0c-0.4,0-0.8,0-1.2,0v-0.3h0.1c0.2,0,0.5,0,0.5-0.3v-2.6c0-0.6-0.3-0.9-0.8-0.9c-0.3,0-0.7,0.2-0.9,0.4v3.1
	c0,0.3,0.3,0.3,0.5,0.3h0.2v0.3c-0.4,0-0.8,0-1.2,0c-0.4,0-0.8,0-1.2,0v-0.1c-0.2,0.2-0.4,0.3-0.7,0.3c-0.5,0-0.7-0.3-0.8-0.8
	c-0.4,0.4-0.9,0.8-1.5,0.8c-0.6,0-1.1-0.4-1.1-1c0-0.8,0.6-1,1.4-1.3l1.2-0.4v-0.6c0-0.6-0.3-0.8-0.8-0.8c-0.6,0-0.7,0.1-0.8,0.7
	c0,0.3-0.6,0.4-0.7,0.4c-0.1,0-0.2-0.1-0.2-0.2c0-0.4,0.3-0.7,0.6-0.9c0.3-0.2,0.7-0.4,1.1-0.6c0.2-0.1,0.4-0.1,0.6-0.1
	c0.9,0,1.4,0.5,1.4,1.4v2c0,0.4,0,0.7,0.3,0.7c0.1,0,0.2,0,0.3-0.1l0.1,0.2c-0.1,0.1-0.1,0.1-0.2,0.2c0.3,0,0.4,0,0.4-0.3v-2.9
	c0-0.1,0-0.2-0.3-0.3c-0.1,0-0.2-0.1-0.3-0.1v-0.3c0.3-0.1,0.6-0.2,0.9-0.3c0.2-0.1,0.4-0.2,0.7-0.3l0.1,0.1v0.6
	c0.4-0.3,1-0.7,1.6-0.7c0.7,0,1.3,0.4,1.3,1.3V36L117.5,36z M111.4,35.6v-1.2c-0.6,0.1-1.5,0.4-1.5,1.1c0,0.4,0.2,0.6,0.6,0.6
	C111,36.1,111.2,35.7,111.4,35.6L111.4,35.6z"/>
</svg>
