<?xml version="1.0" encoding="utf-8"?>
<!-- Generator: Adobe Illustrator 19.2.0, SVG Export Plug-In . SVG Version: 6.00 Build 0)  -->
<svg version="1.1" id="logo" xmlns="http://www.w3.org/2000/svg" xmlns:xlink="http://www.w3.org/1999/xlink" x="0px" y="0px"
	 width="140px" height="50px" viewBox="0 0 140 50" style="enable-background:new 0 0 140 50;" xml:space="preserve">
<style type="text/css">
	.st0{fill:#CFD2D4;}
</style>
<path id="pull-n-bear" class="st0" d="M70.4,29.2c0-0.6,0.1-1,0.2-1.6c0.2-0.7,0.6-1.2,1.1-1.6c0.1,0,0.2-0.1,0.3-0.1
	c0-0.1,0-0.2,0-0.3s0-0.3,0-0.4c0-0.2,0-0.4,0-0.8c0-0.3,0-0.7,0-0.9c0-0.1,0-0.1,0-0.2c-0.8,0-1.6,0.2-2.2,0.6
	c-1,0.6-1.8,1.6-2,2.7c-1.5-1.6-2.9-3.2-4.5-4.8c-0.3-0.3-0.4-0.9-0.4-1.3c0.1-0.6,0.4-1,0.9-1.2c0.3-0.2,0.7-0.2,1-0.1
	c0.6,0.1,1,0.4,1.2,1c0.8-0.4,1.7-0.8,2.5-1.2c-0.1-0.2-0.3-0.6-0.4-0.8c-0.8-1.1-2.1-1.8-3.6-1.7c-1.6,0-3.1,0.9-3.9,2.2
	c-0.4,0.9-0.7,1.9-0.4,2.8c0.1,0.9,0.6,1.8,1.2,2.3c-0.8,0.4-1.3,1-1.8,1.8c-0.6,0.9-0.8,1.8-0.8,2.8s0.3,1.9,0.8,2.8
	c0.8,1.2,2.1,2.1,3.5,2.5c0.8,0.1,1.5,0.1,2.2,0c1.2-0.2,2.5-0.9,3.4-1.8c0.3,0.4,0.8,0.8,1.1,1.2c1.2,0,2.6,0,3.8,0
	C72.7,31.8,71.5,30.4,70.4,29.2z M65.1,30.8c-0.7,0.1-1.5,0-2-0.3c-0.7-0.4-1.2-1.2-1.2-2c0-0.2,0-0.3,0-0.6c0.1-0.9,0.8-1.8,1.8-2
	c1.1,1.2,2.3,2.6,3.5,3.8C66.6,30.3,65.9,30.7,65.1,30.8z M24,21.3c-0.3-1.3-1.1-2.7-2.2-3.5c-1.1-0.8-2.5-1.2-3.8-1.2
	c-1.3,0-2.6,0-3.9,0c0.1,5.5,0.1,11,0.1,16.4H17c0-1.3,0-2.8,0-4.1c0.7,0,1.5,0,2.1-0.1c1.1-0.1,2.2-0.7,3-1.5c1.1-1,1.8-2.5,2-4
	C24.2,22.6,24.2,21.9,24,21.3z M20.4,25.3c-0.4,0.6-1.1,0.8-1.8,0.9c-0.4,0-1,0-1.5,0v-6.7c0.6,0,1.1,0,1.7,0.1
	c0.7,0.1,1.3,0.6,1.8,1.1C21.6,21.8,21.5,24.1,20.4,25.3z M35.7,16.6c1,0,2,0,2.9,0c0,0.1,0,0.2,0,0.2c0,0.2,0,0.3,0,0.6
	s0,0.3,0,0.6s0,0.6,0,0.8c0,0.1,0,0.1,0,0.2c0,0.4,0,0.8,0,1.2c0,0.6,0,1.1,0,1.7c0,0.9,0,1.7,0,2.6c0,0.1,0,0.3,0,0.4
	c0,0.2,0,0.3,0,0.6c0,0.1,0,0.2,0,0.4c0,0.6,0,1.1,0,1.7c-0.1,1-0.3,2-0.9,2.8c-0.6,0.9-1.2,1.7-2.1,2.1c-1,0.6-2.1,0.8-3.4,0.8
	s-2.6-0.3-3.7-1c-1-0.7-1.9-1.7-2.3-2.8c-0.3-0.9-0.6-1.9-0.6-2.9c0-3.4,0-6.7,0-10c1,0,2,0,3,0c0,3.4,0,6.8,0,10.2
	c0,1,0.2,2,0.9,2.7c0.6,0.7,1.3,1,2.1,1c0.8,0.1,1.7,0,2.5-0.4c0.6-0.3,1-1,1.2-1.6c0.1-0.4,0.2-0.9,0.2-1.5c0-1.2,0-2.3,0-3.6
	C35.7,21.2,35.7,18.9,35.7,16.6L35.7,16.6z M49.9,16.6c1,0,2,0,2.9,0c0,4.6,0,9.1,0,13.7c1.7,0,3.4,0,5,0c0,0.9,0,1.9,0,2.8
	c-2.7,0-5.4,0-8.1,0C49.9,27.5,49.9,22.1,49.9,16.6L49.9,16.6z M85.2,26.1c-0.4-0.8-1.1-1.5-1.9-1.9l0,0c0.6-0.6,1-1.2,1.2-2
	c0.1-0.6,0.1-1.1,0-1.8c-0.1-0.6-0.3-1.1-0.7-1.6c-0.4-0.7-1.1-1.2-1.9-1.6c-0.6-0.3-1.2-0.4-1.9-0.4c-0.4,0-0.8-0.1-1.2-0.1
	c-1.2,0-2.6,0-3.8,0c0,5.5,0,11,0,16.4c1.9,0,3.7,0,5.6,0c1.3-0.1,2.7-0.7,3.6-1.6c0.8-0.7,1.2-1.7,1.3-2.7
	C85.7,27.9,85.6,26.9,85.2,26.1z M78,19.3c0.7,0,1.3,0,2,0.1c0.4,0.1,0.9,0.2,1.2,0.7c0.3,0.3,0.4,0.8,0.3,1.3c0,0.6-0.1,1-0.6,1.5
	c-0.4,0.3-1,0.6-1.6,0.6s-1,0-1.6,0C78,21.9,78,20.6,78,19.3z M82.6,28.7c-0.1,0.3-0.3,0.8-0.6,1c-0.3,0.3-0.9,0.4-1.3,0.6
	c-0.9,0.1-1.8,0.1-2.7,0.1c0-1.5,0-2.9,0-4.3c0.7,0,1.3,0,2,0s1.3,0.1,1.9,0.6c0.3,0.2,0.7,0.7,0.7,1.1C82.6,28,82.6,28.3,82.6,28.7
	z M87.2,16.6c3.4,0,6.7,0,10.1,0c0,0.9,0,1.9,0,2.8c-2.3,0-4.8,0-7.2,0c0,1.3,0,2.6,0,3.9c2.2,0,4.5,0,6.8,0c0,0.9,0,1.8,0,2.7
	c-2.2,0-4.5,0-6.8,0c0,1.5,0,2.8,0,4.3c2.3,0,4.8,0,7.2,0c0,0.9,0,1.8,0,2.8c-3.4,0-6.7,0-10.1,0C87.2,27.5,87.2,22.1,87.2,16.6
	L87.2,16.6z M107.2,16.7c0-0.1-0.1-0.1-0.2-0.1c-0.7,0-1.3,0-2,0c-0.1,0-0.1,0-0.2,0c-2.2,5.5-4.5,11-6.7,16.4c1,0,2.1,0,3.1,0
	c0.6-1.5,1.1-2.8,1.7-4.3c2,0,4,0,6,0c0.6,1.5,1.1,2.9,1.7,4.3c1.1,0,2.2,0,3.4,0C111.8,27.5,109.4,22.1,107.2,16.7z M104,26
	c0.7-1.7,1.3-3.4,2-4.9c0.7,1.7,1.3,3.4,2,4.9C106.6,26,105.3,26,104,26z M124.4,30.3c-0.7-1.3-1.3-2.7-2-4c0.4-0.2,0.9-0.6,1.3-1
	c0.4-0.4,0.8-1.1,1-1.8c0.4-1.5,0.4-3.1-0.3-4.5c-0.3-0.6-0.9-1.1-1.5-1.5c-0.9-0.6-1.9-0.9-2.9-1c-0.3,0-0.8-0.1-1.1-0.1
	c-1.5,0-2.8,0-4.3,0c0,5.5,0,11,0,16.4c1,0,2,0,2.9,0c0-1.8,0-3.7,0-5.5c0.1,0,0.2,0,0.3,0c0.2,0,0.4,0,0.8,0c0.2,0,0.4-0.1,0.8-0.1
	c0.1,0.2,0.2,0.6,0.3,0.8c0.8,1.7,1.6,3.2,2.5,4.8c1.2,0,2.5,0,3.7,0C125.4,32.1,124.9,31.2,124.4,30.3z M122,22.7
	c-0.1,0.6-0.6,1-1,1.3c-0.7,0.4-1.6,0.6-2.3,0.6c-0.3,0-0.7,0-0.9,0c0-1.7,0-3.5,0-5.1c0.9,0,1.7,0,2.6,0.2c0.3,0.1,0.7,0.2,1,0.4
	c0.3,0.2,0.7,0.7,0.8,1.1C122.1,21.7,122.1,22.3,122,22.7z M40.7,16.6c1,0,2,0,2.9,0c0,4.6,0,9.1,0,13.7c1.7,0,3.4,0,5,0
	c0,0.9,0,1.9,0,2.8c-2.7,0-5.4,0-8.1,0C40.7,27.5,40.7,22.1,40.7,16.6L40.7,16.6z"/>
</svg>
