<?xml version="1.0" encoding="utf-8"?>
<!-- Generator: Adobe Illustrator 19.2.0, SVG Export Plug-In . SVG Version: 6.00 Build 0)  -->
<svg version="1.1" id="logo" xmlns="http://www.w3.org/2000/svg" xmlns:xlink="http://www.w3.org/1999/xlink" x="0px" y="0px"
	 width="140px" height="50px" viewBox="0 0 140 50" style="enable-background:new 0 0 140 50;" xml:space="preserve">
<style type="text/css">
	.st0{fill:#CFD2D3;}
</style>
<path id="colins" class="st0" d="M125.9,30.8c-0.9,5.5-3.8,7.5-7.9,7.3c-5.7,0.2-8.8-2.8-8.6-9l4.8-1c-0.1,3.9,0.8,5.9,3.3,5.9
	c0.8,0,1.5,0.1,2-0.2c1.6-1,1.4-4.3,0.7-5.2c-4.6-4-10.9-6.1-10.8-12.1c0-4.1,1.9-6.7,7.3-6.7c6.7,0,8.3,2.9,8.3,7.3l-4.7,0.7
	c0.1-2.7-0.8-4-3-4.3c-1.9,0-2.7,0.6-2.8,2.2c0,2.9,2.8,4.5,5.6,6C124.8,24.2,126.4,27.3,125.9,30.8z M99,10.2h-5v19.1l-7.2-19.1
	h-5.3v27.3h4.9v-19l7.1,19h0.5h5V10.2z M72.6,37.5h4.9V10.2h-4.9V37.5z M60,10.2h-4.9v23.3v4H60h9.8v-4H60V10.2z M51.3,17.3v12.9
	c0,4.9-3.4,8-8.2,8h-1c-5.3,0-8.2-3.4-8.2-8V17.3c0-4.6,3.2-7.7,8.2-7.7h1C47.9,9.5,51.3,12.5,51.3,17.3z M46.2,19.5
	c0-3.2-0.2-5.8-3.4-5.8h-0.7c-3.2,0-3.4,2.6-3.4,5.8c0,2.9,0,5.9,0,8.8c0,3.2,0.2,5.8,3.4,5.8h0.7c3.2,0,3.4-2.6,3.4-5.8
	C46.2,25.5,46.2,22.5,46.2,19.5z M23.4,9.5h-1c-5.4,0-7.9,3.2-8.2,7.8c-0.2,4.3-0.2,8.6,0,12.9c0.2,5.1,3.3,8,8.2,8h1
	c4.6,0,6.9-3.6,6.9-8v-2.5h-5.1c0,0.2,0,0.4,0,0.6c0,3.2,0.1,5.8-2.7,5.8h-0.7c-1.6,0-2.8-2.6-2.8-5.8c0-2.9,0-5.9,0-8.8
	c0-3.2,0.4-5.8,2.8-5.8h0.7c2.7,0,2.7,2,2.7,4.6h5.1v-1.1C30.3,12.9,27.9,9.5,23.4,9.5z M37.8,44.2h0.5v-0.6h-0.5V44.2z M37.8,48
	c0,0.2,0,0.4-0.1,0.5c0,0.1-0.1,0.1-0.2,0.1c-0.1,0-0.2,0-0.3,0L37.1,49c0.1,0,0.3,0,0.5,0.1c0.3,0,0.5-0.1,0.6-0.3
	c0.1-0.1,0.1-0.4,0.1-0.8v-3.3h-0.5V48z M46.6,45.1c0.3,0.3,0.4,0.7,0.4,1.2v0.1h-2.3c0,0.3,0.1,0.6,0.3,0.8
	c0.2,0.2,0.4,0.3,0.7,0.3c0.2,0,0.4-0.1,0.5-0.2c0.1,0,0.2-0.2,0.3-0.4l0.5,0.1c-0.1,0.3-0.2,0.6-0.5,0.7c-0.2,0.2-0.5,0.2-0.9,0.2
	c-0.5,0-0.8-0.1-1.1-0.4c-0.3-0.3-0.4-0.7-0.4-1.2s0.1-0.9,0.4-1.2c0.3-0.3,0.6-0.4,1.1-0.4C46,44.7,46.4,44.8,46.6,45.1z
	 M46.4,45.9c0-0.3-0.1-0.5-0.2-0.6c-0.2-0.2-0.4-0.3-0.7-0.3c-0.2,0-0.5,0.1-0.6,0.2c-0.1,0.2-0.2,0.4-0.2,0.7H46.4z M55.5,47.3
	c0,0.1,0.1,0.3,0.1,0.4H55c0,0-0.1-0.2-0.1-0.3c-0.2,0.2-0.4,0.3-0.6,0.4c-0.1,0-0.3,0-0.5,0c-0.3,0-0.6-0.1-0.8-0.3
	c-0.2-0.2-0.3-0.4-0.3-0.6c0-0.2,0-0.3,0.1-0.4c0.1-0.1,0.2-0.2,0.3-0.3c0.1-0.1,0.2-0.1,0.4-0.2c0.1,0,0.3-0.1,0.5-0.1
	c0.4-0.1,0.7-0.1,0.9-0.2c0-0.1,0-0.1,0-0.1c0-0.2,0-0.4-0.1-0.5c-0.1-0.1-0.3-0.2-0.6-0.2c-0.2,0-0.4,0-0.5,0.1
	c-0.1,0.1-0.2,0.2-0.3,0.5L53,45.4c0-0.2,0.1-0.4,0.2-0.5c0.1-0.1,0.3-0.2,0.5-0.3c0.2-0.1,0.4-0.1,0.7-0.1c0.3,0,0.5,0,0.6,0.1
	c0.2,0.1,0.3,0.1,0.4,0.2c0.1,0.1,0.1,0.2,0.2,0.4c0,0.1,0,0.3,0,0.5v0.7C55.5,46.9,55.5,47.2,55.5,47.3z M54.9,46.2
	c-0.2,0.1-0.5,0.1-0.9,0.2c-0.2,0-0.4,0.1-0.5,0.1c-0.1,0-0.2,0.1-0.2,0.2c0,0.1,0,0.1,0,0.2c0,0.1,0.1,0.3,0.2,0.4
	c0.1,0.1,0.3,0.1,0.5,0.1s0.4,0,0.5-0.1c0.2-0.1,0.3-0.2,0.3-0.4c0.1-0.1,0.1-0.3,0.1-0.5V46.2z M63.5,44.8
	c-0.1-0.1-0.3-0.1-0.5-0.1c-0.4,0-0.8,0.2-1,0.5v-0.4h-0.5v3.1h0.6V46c0-0.4,0-0.7,0.2-0.8c0.2-0.1,0.4-0.2,0.6-0.2
	c0.2,0,0.3,0,0.4,0.1c0.1,0.1,0.2,0.2,0.2,0.3c0.1,0.1,0.1,0.3,0.1,0.5v1.9h0.5v-1.9c0-0.2,0-0.4,0-0.5c-0.1-0.2-0.1-0.3-0.2-0.4
	C63.8,45,63.7,44.9,63.5,44.8z M72.1,46c-0.2,0-0.4-0.1-0.8-0.2c-0.3,0-0.4-0.1-0.5-0.1c-0.1,0-0.2,0-0.2-0.1
	c-0.1-0.1-0.1-0.1-0.1-0.2c0-0.1,0.1-0.2,0.2-0.3c0.1-0.1,0.3-0.1,0.5-0.1s0.4,0,0.5,0.1c0.1,0.1,0.2,0.2,0.2,0.4l0.5-0.1
	c-0.1-0.2-0.1-0.4-0.2-0.5c-0.1-0.1-0.2-0.2-0.4-0.3c-0.1-0.1-0.4-0.1-0.6-0.1s-0.4,0.1-0.5,0.1c-0.1,0.1-0.2,0.1-0.3,0.2
	c-0.2,0.1-0.2,0.2-0.3,0.3C70,45.2,70,45.4,70,45.5c0,0.1,0,0.3,0.1,0.4c0,0.1,0.2,0.2,0.3,0.3c0.1,0.1,0.4,0.2,0.8,0.3
	c0.2,0.1,0.4,0.2,0.5,0.2c0.1,0.1,0.2,0.2,0.2,0.3c0,0.1-0.1,0.2-0.2,0.3c-0.1,0-0.3,0.1-0.5,0.1c-0.3,0-0.5-0.1-0.6-0.2
	c-0.1-0.1-0.2-0.3-0.2-0.5l-0.5,0.1c0.1,0.4,0.2,0.6,0.4,0.7c0.2,0.2,0.5,0.3,0.9,0.3c0.3,0,0.5,0,0.7-0.1c0.1-0.1,0.3-0.2,0.4-0.4
	c0.1-0.2,0.2-0.3,0.2-0.5c0-0.2,0-0.4-0.1-0.5C72.4,46.2,72.2,46.1,72.1,46z M81.2,46.6L81,47.2l-0.2-0.6l-0.5-1.8h-0.5l-0.5,1.8
	c-0.1,0.4-0.2,0.6-0.2,0.6L79,46.5l-0.5-1.8H78l1,3.1h0.6l0.6-2.4V46l0.5,1.9h0.6l1-3.1h-0.5L81.2,46.6z M90.3,45.1
	c0.3,0.3,0.4,0.7,0.4,1.2v0.1h-2.3c0,0.3,0.1,0.6,0.3,0.8c0.2,0.2,0.4,0.3,0.7,0.3c0.2,0,0.4-0.1,0.5-0.2c0.1,0,0.2-0.2,0.2-0.4
	l0.6,0.1c-0.1,0.3-0.2,0.6-0.5,0.7c-0.2,0.2-0.5,0.2-0.9,0.2c-0.5,0-0.8-0.1-1.1-0.4c-0.3-0.3-0.4-0.7-0.4-1.2s0.1-0.9,0.4-1.2
	c0.3-0.3,0.6-0.4,1.1-0.4C89.7,44.7,90.1,44.8,90.3,45.1z M90.1,45.9c0-0.3-0.1-0.5-0.2-0.6c-0.2-0.2-0.4-0.3-0.7-0.3
	c-0.2,0-0.4,0.1-0.6,0.2c-0.1,0.2-0.2,0.4-0.2,0.7H90.1z M99.1,47.3c0,0.1,0.1,0.3,0.1,0.4h-0.6c0.1,0,0-0.2,0-0.3
	c-0.2,0.2-0.4,0.3-0.6,0.4c-0.1,0-0.3,0-0.5,0c-0.3,0-0.6-0.1-0.8-0.3c-0.2-0.2-0.3-0.4-0.3-0.6c0-0.2,0-0.3,0.1-0.4
	c0.1-0.1,0.2-0.2,0.3-0.3c0.1-0.1,0.2-0.1,0.4-0.2c0.1,0,0.3-0.1,0.5-0.1c0.4-0.1,0.7-0.1,0.9-0.2c0-0.1,0-0.1,0-0.1
	c0-0.2-0.1-0.4-0.2-0.5c-0.1-0.1-0.3-0.2-0.6-0.2c-0.2,0-0.4,0-0.6,0.1c-0.1,0.1-0.2,0.2-0.3,0.5l-0.5-0.1c0-0.2,0.1-0.4,0.2-0.5
	c0.1-0.1,0.3-0.2,0.5-0.3c0.2-0.1,0.4-0.1,0.7-0.1s0.5,0,0.7,0.1c0.2,0.1,0.3,0.1,0.4,0.2c0.1,0.1,0.1,0.2,0.2,0.4
	c0,0.1,0,0.3,0,0.5v0.7C99.1,46.9,99.1,47.2,99.1,47.3z M98.6,46.2c-0.2,0.1-0.5,0.1-0.9,0.2c-0.2,0-0.4,0.1-0.5,0.1
	c-0.1,0-0.2,0.1-0.2,0.2c0,0.1-0.1,0.2-0.1,0.2c0,0.1,0.1,0.3,0.2,0.4c0.1,0.1,0.3,0.1,0.5,0.1c0.2,0,0.4,0,0.5-0.1
	c0.2-0.1,0.3-0.2,0.4-0.4c0.1-0.1,0.1-0.3,0.1-0.5V46.2z M106,44.9c-0.1,0-0.2,0.2-0.3,0.4v-0.5h-0.5v3.1h0.4v-1.5
	c0-0.2,0-0.4,0.1-0.6c0-0.1,0.1-0.2,0.2-0.3c0.1-0.1,0.2-0.1,0.3-0.1s0.3,0,0.4,0.1l0.2-0.5c-0.1-0.1-0.3-0.2-0.5-0.2
	C106.2,44.8,106.1,44.8,106,44.9z M106.1,1h-3.9v16.6h3.9V1z"/>
</svg>
